<?xml version="1.0" encoding="UTF-8"?>
<svg version="1.1" xmlns="http://www.w3.org/2000/svg" width="921" height="921">
<path d="M0 0 C1.30608261 -0.00751056 2.61216521 -0.01502111 3.95782608 -0.02275926 C5.41884019 -0.01592806 6.87985305 -0.00882345 8.34086466 -0.00147593 C9.89027956 -0.00460295 11.43969227 -0.00904492 12.98910004 -0.01468903 C17.27720175 -0.02644378 21.56510265 -0.01934365 25.85320134 -0.00935517 C30.50677467 -0.00178266 35.16031589 -0.01150979 39.81388474 -0.01908517 C47.97990414 -0.02995181 56.14586412 -0.02957225 64.31188631 -0.02194369 C76.45471722 -0.0106307 88.59749768 -0.01637945 100.74032821 -0.02556861 C122.42307431 -0.04139537 144.10579395 -0.03998493 165.78854258 -0.03133187 C184.76304534 -0.02379643 203.73753838 -0.02180985 222.71204233 -0.0253998 C223.96881727 -0.02562896 225.2255922 -0.02585811 226.52045123 -0.02609421 C231.62162478 -0.02702817 236.72279832 -0.02798337 241.82397186 -0.02897351 C277.44279893 -0.03580485 313.06162304 -0.03699734 348.68044901 -0.02578318 C349.68796778 -0.02546706 349.68796778 -0.02546706 350.71584048 -0.02514455 C361.62421951 -0.0217095 372.53259848 -0.01805121 383.44097743 -0.01437403 C426.70779944 0.00019554 469.97459361 -0.00048069 513.2414155 -0.01506579 C524.14422462 -0.01872921 535.04703374 -0.0223623 545.94984293 -0.02578318 C546.62112289 -0.02599453 547.29240285 -0.02620587 547.98402463 -0.02642362 C584.20335027 -0.03774883 620.42267463 -0.03525918 656.64200115 -0.028229 C661.73408397 -0.02726679 666.82616679 -0.02632827 671.91824961 -0.0253998 C673.17212532 -0.02516257 674.42600104 -0.02492534 675.71787299 -0.02468092 C694.68423593 -0.02126305 713.65058811 -0.02526945 732.61694956 -0.03283846 C754.1743719 -0.04139842 775.73176357 -0.03930993 797.28918207 -0.02299623 C809.36621239 -0.0141593 821.44317633 -0.0136526 833.52020499 -0.02493476 C841.57414225 -0.03163125 849.62802597 -0.02753114 857.68195525 -0.01442045 C862.27951781 -0.0072427 866.87694789 -0.00492907 871.47450656 -0.0156384 C875.6497658 -0.02526548 879.82477397 -0.02130579 884.0000146 -0.00609642 C885.50804066 -0.00305292 887.01608709 -0.00513035 888.52409715 -0.01271423 C890.55947758 -0.02223096 892.59492292 -0.01170428 894.63029194 0 C896.32627631 0.00030492 896.32627631 0.00030492 898.056523 0.00061599 C900.81514597 0.37604749 900.81514597 0.37604749 902.67819638 1.51299708 C904.33987606 4.23589089 904.19062184 6.38146605 904.19119346 9.56090152 C904.19870402 10.86698413 904.20621457 12.17306673 904.21395272 13.5187276 C904.20712152 14.97974172 904.20001691 16.44075457 904.19266939 17.90176618 C904.19579642 19.45118108 904.20023838 21.00059379 904.20588249 22.55000156 C904.21763724 26.83810327 904.21053711 31.12600418 904.20054863 35.41410286 C904.19297612 40.06767619 904.20270326 44.72121741 904.21027863 49.37478626 C904.22114527 57.54080566 904.22076571 65.70676564 904.21313715 73.87278783 C904.20182416 86.01561874 904.20757291 98.1583992 904.21676207 110.30122973 C904.23258883 131.98397583 904.2311784 153.66669547 904.22252533 175.34944411 C904.2149899 194.32394687 904.21300331 213.29843991 904.21659327 232.27294385 C904.216937 234.15810626 904.216937 234.15810626 904.21728768 236.08135275 C904.21822163 241.1825263 904.21917683 246.28369984 904.22016697 251.38487338 C904.22699831 287.00370045 904.2281908 322.62252456 904.21697664 358.24135053 C904.2167659 358.91302972 904.21655515 359.5847089 904.21633802 360.276742 C904.21290297 371.18512104 904.20924467 382.0935 904.20556749 393.00187896 C904.19099792 436.26870097 904.19167415 479.53549513 904.20625925 522.80231702 C904.20992267 533.70512614 904.21355576 544.60793526 904.21697664 555.51074445 C904.21718799 556.18202441 904.21739933 556.85330437 904.21761708 557.54492615 C904.22894229 593.7642518 904.22645264 629.98357616 904.21942246 666.20290267 C904.21846025 671.29498549 904.21752174 676.38706831 904.21659327 681.47915113 C904.21623742 683.3599647 904.21623742 683.3599647 904.21587438 685.27877451 C904.21245651 704.24513745 904.21646291 723.21148963 904.22403193 742.17785108 C904.23259188 763.73527343 904.23050339 785.29266509 904.21418969 806.85008359 C904.20535276 818.92711391 904.20484606 831.00407785 904.21612822 843.08110651 C904.22282471 851.13504377 904.21872461 859.18892749 904.20561391 867.24285677 C904.19843616 871.84041933 904.19612253 876.43784942 904.20683186 881.03540808 C904.21645895 885.21066732 904.21249926 889.3856755 904.19728988 893.56091612 C904.19424638 895.06894218 904.19632381 896.57698861 904.20390769 898.08499867 C904.21342443 900.1203791 904.20289774 902.15582444 904.19119346 904.19119346 C904.19088855 905.88717783 904.19088855 905.88717783 904.19057747 907.61742452 C903.81514597 910.37604749 903.81514597 910.37604749 902.67819638 912.2390979 C899.95530257 913.90077758 897.80972741 913.75152336 894.63029194 913.75209498 C893.32420933 913.75960554 892.01812673 913.76711609 890.67246586 913.77485424 C889.21145175 913.76802305 887.75043889 913.76091844 886.28942728 913.75357091 C884.74001238 913.75669794 883.19059967 913.7611399 881.6411919 913.76678401 C877.35309019 913.77853877 873.06518929 913.77143864 868.7770906 913.76145015 C864.12351727 913.75387765 859.46997605 913.76360478 854.8164072 913.77118015 C846.6503878 913.7820468 838.48442782 913.78166723 830.31840563 913.77403867 C818.17557472 913.76272568 806.03279426 913.76847444 793.88996373 913.77766359 C772.20721763 913.79349035 750.52449799 913.79207992 728.84174936 913.78342686 C709.8672466 913.77589142 690.89275355 913.77390483 671.91824961 913.77749479 C670.66147467 913.77772394 669.40469973 913.7779531 668.10984071 913.7781892 C663.00866716 913.77912316 657.90749362 913.78007835 652.80632008 913.78106849 C617.18749301 913.78789983 581.5686689 913.78909233 545.94984293 913.77787817 C544.94232415 913.77756204 544.94232415 913.77756204 543.91445146 913.77723954 C533.00607243 913.77380449 522.09769346 913.77014619 511.1893145 913.76646902 C467.92249249 913.75189945 424.65569833 913.75257567 381.38887644 913.76716077 C370.48606732 913.77082419 359.5832582 913.77445728 348.68044901 913.77787817 C348.00916905 913.77808951 347.33788909 913.77830085 346.64626731 913.7785186 C310.42694167 913.78984382 274.20761731 913.78735417 237.98829079 913.78032398 C232.89620797 913.77936177 227.80412515 913.77842326 222.71204233 913.77749479 C221.45816662 913.77725756 220.2042909 913.77702032 218.91241895 913.7767759 C199.94605601 913.77335804 180.97970383 913.77736443 162.01334238 913.78493345 C140.45592003 913.7934934 118.89852837 913.79140492 97.34110987 913.77509122 C85.26407955 913.76625429 73.18711561 913.76574758 61.11008695 913.77702974 C53.05614969 913.78372623 45.00226597 913.77962613 36.94833669 913.76651543 C32.35077413 913.75933768 27.75334404 913.75702406 23.15578538 913.76773338 C18.98052614 913.77736047 14.80551796 913.77340078 10.63027734 913.7581914 C9.12225128 913.75514791 7.61420485 913.75722533 6.10619479 913.76480921 C4.07081436 913.77432595 2.03536902 913.76379926 0 913.75209498 C-1.13065625 913.75189171 -2.2613125 913.75168843 -3.42623106 913.75147899 C-6.18485403 913.37604749 -6.18485403 913.37604749 -8.04790444 912.2390979 C-9.70958412 909.51620409 -9.5603299 907.37062893 -9.56090152 904.19119346 C-9.56841208 902.88511086 -9.57592263 901.57902825 -9.58366078 900.23336738 C-9.57682958 898.77235327 -9.56972497 897.31134041 -9.56237745 895.8503288 C-9.56550448 894.30091391 -9.56994644 892.7515012 -9.57559055 891.20209342 C-9.5873453 886.91399171 -9.58024518 882.62609081 -9.57025669 878.33799212 C-9.56268419 873.68441879 -9.57241132 869.03087758 -9.57998669 864.37730873 C-9.59085334 856.21128932 -9.59047377 848.04532934 -9.58284521 839.87930715 C-9.57153222 827.73647624 -9.57728098 815.59369579 -9.58647013 803.45086525 C-9.60229689 781.76811916 -9.60088646 760.08539952 -9.5922334 738.40265088 C-9.58469796 719.42814812 -9.58271137 700.45365508 -9.58630133 681.47915113 C-9.58653048 680.22237619 -9.58675964 678.96560126 -9.58699574 677.67074223 C-9.58792969 672.56956868 -9.58888489 667.46839514 -9.58987503 662.3672216 C-9.59670637 626.74839453 -9.59789887 591.12957042 -9.5866847 555.51074445 C-9.58647396 554.83906527 -9.58626321 554.16738608 -9.58604608 553.47535299 C-9.58261103 542.56697395 -9.57895273 531.65859498 -9.57527556 520.75021603 C-9.56070598 477.48339402 -9.56138221 434.21659985 -9.57596731 390.94977796 C-9.57963073 380.04696885 -9.58326382 369.14415973 -9.5866847 358.24135053 C-9.58689605 357.57007057 -9.58710739 356.89879061 -9.58732514 356.20716883 C-9.59865036 319.98784319 -9.59616071 283.76851883 -9.58913052 247.54919231 C-9.58816831 242.45710949 -9.5872298 237.36502668 -9.58630133 232.27294385 C-9.58606409 231.01906814 -9.58582686 229.76519242 -9.58558244 228.47332047 C-9.58216458 209.50695753 -9.58617097 190.54060536 -9.59373999 171.5742439 C-9.60229994 150.01682156 -9.60021146 128.4594299 -9.58389775 106.90201139 C-9.57506082 94.82498107 -9.57455412 82.74801713 -9.58583628 70.67098847 C-9.59253277 62.61705122 -9.58843267 54.5631675 -9.57532197 46.50923821 C-9.56814422 41.91167566 -9.5658306 37.31424557 -9.57653992 32.7166869 C-9.58616701 28.54142766 -9.58220732 24.36641949 -9.56699794 20.19117887 C-9.56395444 18.6831528 -9.56603187 17.17510637 -9.57361575 15.66709631 C-9.58313249 13.63171588 -9.5726058 11.59627054 -9.56090152 9.56090152 C-9.56069825 8.43024527 -9.56049497 7.29958903 -9.56028553 6.13467047 C-9.18485403 3.37604749 -9.18485403 3.37604749 -8.04790444 1.51299708 C-5.32501063 -0.14868259 -3.17943547 0.00057162 0 0 Z M3.81514597 13.37604749 C3.81514597 306.08604749 3.81514597 598.79604749 3.81514597 900.37604749 C296.52514597 900.37604749 589.23514597 900.37604749 890.81514597 900.37604749 C890.81514597 607.66604749 890.81514597 314.95604749 890.81514597 13.37604749 C598.10514597 13.37604749 305.39514597 13.37604749 3.81514597 13.37604749 Z " fill="#1A1A18" transform="translate(13.18485403060913,3.6239525079727173)"/>
<path d="M0 0 C3 0.5625 3 0.5625 4.92919922 2.41137695 C7.84661352 6.85078586 9.40333469 11.54045563 11.1328125 16.54296875 C11.52231079 17.64343033 11.91180908 18.74389191 12.31311035 19.87770081 C13.59268904 23.49871454 14.85868809 27.12432783 16.125 30.75 C17.01500952 33.27481196 17.90588076 35.79929735 18.79833984 38.32324219 C20.17204945 42.20978768 21.54512618 46.09654578 22.91372681 49.9848938 C27.04834255 61.72943174 31.25675703 73.44683411 35.48583984 85.15768433 C37.33684417 90.28389719 39.18405508 95.41147596 41.03125 100.5390625 C41.37462402 101.49201706 41.71799805 102.44497162 42.07177734 103.42680359 C46.40721388 115.46273448 50.71090578 127.50997965 55 139.5625 C56.80386671 136.85669993 57.76675119 134.7347262 58.84423828 131.70581055 C59.19865997 130.7159465 59.55308167 129.72608246 59.91824341 128.70622253 C60.48851761 127.09400566 60.48851761 127.09400566 61.0703125 125.44921875 C61.67019485 123.76926567 61.67019485 123.76926567 62.28219604 122.05537415 C63.5669887 118.45494434 64.84617011 114.85255151 66.125 111.25 C67.37903385 107.72848106 68.63422564 104.2073812 69.8908844 100.6867981 C70.71843396 98.36287552 71.54211961 96.03757336 72.36192322 93.71090698 C74.31210405 88.19283075 76.31310848 82.71183151 78.48266602 77.27587891 C78.86740082 76.29085892 79.25213562 75.30583893 79.64852905 74.29096985 C80.36380509 72.47003278 81.09976373 70.65701148 81.86123657 68.85490417 C84.7729854 61.35656194 83.35876301 56.09095739 80.64501953 48.73779297 C80.29036621 47.97611816 79.93571289 47.21444336 79.5703125 46.4296875 C76.68929173 39.95822595 74.24293946 33.35575371 71.80947876 26.70654297 C71.07581532 24.72349059 70.32030079 22.75005405 69.55932617 20.77734375 C69.0976001 19.55402344 68.63587402 18.33070313 68.16015625 17.0703125 C67.53572632 15.44053467 67.53572632 15.44053467 66.89868164 13.77783203 C65.90017085 10.20532806 65.72823043 7.25508835 66 3.5625 C68.19172799 0.94928586 69.64654092 0.62140985 73 0.0625 C76 0.5625 76 0.5625 78.01269531 2.64599609 C80.20516497 5.86359345 81.54693894 9.07352392 82.796875 12.7265625 C83.0353717 13.40045013 83.27386841 14.07433777 83.51959229 14.76864624 C84.01824693 16.18396174 84.51213674 17.60096422 85.00146484 19.01953125 C85.75142388 21.19162395 86.51700755 23.35771895 87.28515625 25.5234375 C87.76915163 26.90332262 88.25225606 28.28352064 88.734375 29.6640625 C88.96243835 30.31098053 89.19050171 30.95789856 89.42547607 31.62442017 C90.38335134 34.41638506 91 36.58538698 91 39.5625 C91.66 39.5625 92.32 39.5625 93 39.5625 C93.22816406 38.36367188 93.45632813 37.16484375 93.69140625 35.9296875 C95.16600664 29.30760343 97.57288298 23.03409112 99.9375 16.6875 C100.38029297 15.46546875 100.82308594 14.2434375 101.27929688 12.984375 C101.92801758 11.23253906 101.92801758 11.23253906 102.58984375 9.4453125 C103.17560181 7.85807373 103.17560181 7.85807373 103.77319336 6.23876953 C104.94514147 3.68217348 105.75100599 2.22009577 108 0.5625 C111.4093712 0.19721023 113.88023824 -0.0515629 116.9375 1.625 C118.56050413 4.58459576 118.45801677 7.30424456 118 10.5625 C116.81036265 14.20124124 115.25446158 17.6634628 113.7109375 21.1640625 C101.93601063 45.76313369 101.93601063 45.76313369 101.39941406 71.90307617 C103.06060948 75.78910832 104.87525925 79.56224706 106.88439941 83.28126526 C111.84606857 92.65112672 114.92394684 102.89278134 118.4005127 112.87890625 C120.36317254 118.48259261 122.38936793 124.06302558 124.4140625 129.64453125 C125.11167988 131.57390629 125.80912762 133.50334267 126.50634766 135.43286133 C127.00419099 136.8094223 127.50205778 138.18597479 128 139.5625 C129.77613719 136.89829422 130.72277548 134.85236775 131.77734375 131.87475586 C132.12018402 130.91333679 132.46302429 129.95191772 132.81625366 128.96136475 C133.18626495 127.91063782 133.55627625 126.85991089 133.9375 125.77734375 C134.32982819 124.67400696 134.72215637 123.57067017 135.12637329 122.43389893 C135.97610975 120.04285984 136.82398619 117.65115911 137.67022705 115.25888062 C139.00998061 111.47178772 140.35436441 107.68637327 141.70068359 103.90161133 C142.15866454 102.61399971 142.61664182 101.32638679 143.07461548 100.03877258 C143.30279591 99.39726068 143.53097633 98.75574879 143.76607132 98.09479713 C144.46516239 96.12874335 145.16372924 94.16250402 145.8621521 92.19621277 C152.54440881 73.38618876 159.30580751 54.60459726 166.09521484 35.83300781 C167.29956792 32.50287766 168.50077657 29.17165537 169.69775391 25.83886719 C171.10152704 21.93075997 172.51799674 18.02742096 173.9375 14.125 C174.3205127 13.05338623 174.70352539 11.98177246 175.09814453 10.87768555 C175.44603027 9.92933838 175.79391602 8.98099121 176.15234375 8.00390625 C176.44101318 7.20670166 176.72968262 6.40949707 177.02709961 5.58813477 C178.08747423 3.38037361 179.08773693 2.08653467 181 0.5625 C184.54376481 0.03470524 186.33802098 0.17210212 189.4375 2 C191.80401516 5.88108486 190.81472752 9.21378272 190 13.5625 C189.16695094 16.60131219 188.10393887 19.52578682 186.9921875 22.47265625 C186.67906616 23.32841751 186.36594482 24.18417877 186.04333496 25.06587219 C185.35824354 26.93468189 184.66854921 28.8018092 183.97479248 30.66741943 C182.44740544 34.77489454 180.94220629 38.89040785 179.43496704 43.00531006 C178.61272412 45.2491112 177.78926618 47.49246742 176.96469116 49.7354126 C173.69737001 58.62862215 170.47862884 67.53850871 167.28125 76.45703125 C167.0393223 77.13181644 166.7973946 77.80660164 166.54813576 78.50183487 C165.56427729 81.24645318 164.58066276 83.99115873 163.59737873 86.73598289 C156.48888591 106.57847209 149.36636465 126.4164926 142.15338135 146.22125244 C141.515919 147.97267268 140.8797825 149.72457611 140.24505615 151.47698975 C139.38998092 153.83638428 138.52982472 156.19385674 137.66796875 158.55078125 C137.30092583 159.56772316 137.30092583 159.56772316 136.9264679 160.60520935 C135.84209931 163.55278662 134.75488087 165.93017869 133 168.5625 C130.09050297 169.38474916 127.94845968 169.81361731 124.99902344 169.03271484 C121.94564422 166.7870566 121.12166728 163.67913485 119.890625 160.2265625 C119.59923645 159.44407135 119.3078479 158.6615802 119.00762939 157.8553772 C117.98776847 155.09711248 116.99282741 152.33060658 116 149.5625 C115.61626221 148.50252808 115.23252441 147.44255615 114.8371582 146.35046387 C112.00341615 138.52169413 109.20718375 130.67987675 106.42297363 122.83337402 C104.85256399 118.40927967 103.27814444 113.98661078 101.70391846 109.56387329 C100.87155295 107.22467062 100.04007983 104.88515016 99.20965576 102.54525757 C98.83206116 101.48279816 98.45446655 100.42033875 98.06542969 99.32568359 C97.71266968 98.33252136 97.35990967 97.33935913 96.99645996 96.31610107 C96.10566399 93.85449013 95.17309024 91.41448889 94.22363281 88.97509766 C93 85.5625 93 85.5625 93 82.5625 C92.34 82.5625 91.68 82.5625 91 82.5625 C90.75918701 83.79500488 90.51837402 85.02750977 90.27026367 86.29736328 C88.92622168 92.32408015 86.8121989 98.02065045 84.67578125 103.8046875 C84.03904732 105.54916672 84.03904732 105.54916672 83.38945007 107.32888794 C82.03575629 111.03371939 80.67425131 114.73562363 79.3125 118.4375 C78.41680374 120.88522865 77.52161694 123.33314379 76.62695312 125.78125 C74.89375639 130.52102877 73.15549253 135.25889632 71.41259766 139.99511719 C69.88639288 144.14316283 68.3695503 148.29433995 66.86474609 152.45019531 C66.54314011 153.33458282 66.22153412 154.21897034 65.8901825 155.13015747 C65.30355558 156.74398907 64.71984723 158.35888601 64.13972473 159.97506714 C62.99082241 163.12533348 61.87012949 165.75730576 60 168.5625 C57.09280239 169.38409932 54.94902147 169.81189482 52.00073242 169.03710938 C48.93233826 166.77559617 48.10200418 163.62853905 46.86328125 160.15625 C46.56972244 159.36786743 46.27616364 158.57948486 45.97370911 157.76721191 C44.9649783 155.0383756 43.98101123 152.3014183 43 149.5625 C42.63807556 148.56089844 42.27615112 147.55929687 41.90325928 146.52734375 C39.19147612 139.01774586 36.52191524 131.49350363 33.86083221 123.9658165 C32.00901442 118.73126025 30.14949974 113.49942779 28.29136658 108.26711082 C27.58154871 106.26817235 26.87201003 104.26913491 26.16247559 102.27009583 C21.97225103 90.46794743 17.74941338 78.67763268 13.50692749 66.89416504 C12.75512996 64.80589037 12.00384429 62.71743135 11.25308228 60.62878418 C7.6967383 50.73531233 4.12566531 40.84910524 0.4375 31.00390625 C0.16974762 30.28635666 -0.09800476 29.56880707 -0.37387085 28.82951355 C-1.57257618 25.61732377 -2.77948038 22.40937119 -4.00634766 19.20776367 C-4.40901855 18.13373291 -4.81168945 17.05970215 -5.2265625 15.953125 C-5.57283691 15.04594727 -5.91911133 14.13876953 -6.27587891 13.20410156 C-7.1034718 10.18503375 -7.23549952 7.67975576 -7 4.5625 C-4.88658096 1.47365679 -3.68753254 0.69141235 0 0 Z " fill="#1A1A18" transform="translate(525,313.4375)"/>
<path d="M0 0 C19.95881212 -0.60339036 39.44877302 0.52763024 58.10253906 8.11523438 C59.66875 8.74365234 59.66875 8.74365234 61.26660156 9.38476562 C69.65968345 13.14755556 75.72161225 18.64872136 82.10253906 25.11523438 C82.7096875 25.72367187 83.31683594 26.33210938 83.94238281 26.95898438 C100.61192965 44.99923665 103.08112259 69.50772861 102.30224609 92.87402344 C101.11135556 112.20197299 92.2826507 131.85683 78.10253906 145.11523438 C58.75567079 160.74355136 36.01892884 165.30342713 11.72827148 165.30053711 C9.67247886 165.30272645 7.61722189 165.32095262 5.56152344 165.33984375 C-10.07840757 165.40988702 -10.07840757 165.40988702 -15.89746094 163.11523438 C-18.2577016 159.57487339 -18.15249424 158.09366676 -18.16488647 153.89698792 C-18.17341644 152.59445068 -18.18194641 151.29191345 -18.19073486 149.9499054 C-18.19003582 148.50314319 -18.18911274 147.05638108 -18.18798828 145.60961914 C-18.19397147 144.08858916 -18.20077653 142.56756223 -18.20834351 141.04653931 C-18.22603102 136.91226651 -18.23070001 132.77807647 -18.23197508 128.6437695 C-18.23387284 125.19435147 -18.24122887 121.74495278 -18.24831927 118.29554218 C-18.26461088 110.15885086 -18.26948747 102.0222038 -18.26806641 93.88549805 C-18.2668644 85.48697732 -18.28797619 77.08871334 -18.31955373 68.69025761 C-18.34568718 61.48338788 -18.35643496 54.27660216 -18.35515559 47.0696854 C-18.35464513 42.76364079 -18.36037409 38.45782435 -18.38151169 34.15182686 C-18.4008452 30.10274367 -18.40105244 26.05410745 -18.38647842 22.0050087 C-18.38438319 20.5182893 -18.38913368 19.03154229 -18.40119934 17.54487038 C-18.41659401 15.51679115 -18.40497097 13.48856025 -18.39193726 11.46046448 C-18.39302679 10.32502481 -18.39411633 9.18958513 -18.39523888 8.0197382 C-17.7863015 4.46662588 -16.71259222 3.29650785 -13.89746094 1.11523438 C-11.51806641 0.51464844 -11.51806641 0.51464844 -8.88964844 0.38085938 C-7.91737305 0.32607422 -6.94509766 0.27128906 -5.94335938 0.21484375 C-3.96200484 0.15004793 -1.9808478 0.07877993 0 0 Z M-4.89746094 14.11523438 C-4.89746094 59.32523437 -4.89746094 104.53523438 -4.89746094 151.11523438 C18.97674898 153.50265537 45.95356566 152.28726712 65.74707031 137.08398438 C79.98380068 124.96035192 87.15554016 108.47651573 89.10253906 90.11523438 C90.62248778 69.46926425 85.07768283 50.21125292 72.10253906 34.11523438 C60.21253114 20.75842174 43.1154314 16.54564757 26.10253906 14.11523438 C15.87253906 14.11523438 5.64253906 14.11523438 -4.89746094 14.11523438 Z " fill="#1A1A18" transform="translate(222.8974609375,316.884765625)"/>
<path d="M0 0 C2.38058397 3.57087595 2.28057648 6.08126864 2.25447559 10.20117188 C2.25768207 10.94324229 2.26088855 11.68531271 2.26419219 12.44987011 C2.27254607 14.95624053 2.26654923 17.46237533 2.26069641 19.96875 C2.26371464 21.77586526 2.26760246 23.58297924 2.27228898 25.39009094 C2.28262003 30.37143222 2.28037424 35.35270194 2.27610838 40.33404922 C2.27365041 45.70016518 2.28264369 51.06626348 2.29014587 56.43237305 C2.30292047 66.95071569 2.30468316 77.46903284 2.30234561 87.98738194 C2.3005655 96.53276924 2.30230547 105.07814878 2.30657005 113.62353516 C2.30716524 114.83787074 2.30776043 116.05220633 2.30837366 117.30333996 C2.30958535 119.76992417 2.31079949 122.23650837 2.31201603 124.70309258 C2.32290204 147.85444908 2.32072396 171.00579103 2.31463119 194.15714836 C2.30946009 215.35868952 2.32072069 236.56018477 2.33972941 257.76171684 C2.35907857 279.50891931 2.36736901 301.25610002 2.36360615 323.00331116 C2.36168979 335.22178661 2.36422396 347.44022295 2.37832069 359.65869141 C2.39019824 370.05928306 2.39168027 380.45981155 2.37953053 390.86040401 C2.37361647 396.17108639 2.37261173 401.48165302 2.38453293 406.79232788 C2.39530638 411.64794948 2.39239127 416.50335749 2.37827124 421.35896873 C2.37560059 423.12137018 2.37806414 424.88378791 2.38600711 426.64617348 C2.3960131 429.03065452 2.38777819 431.41437859 2.37473011 433.79882812 C2.38569413 434.8397752 2.38569413 434.8397752 2.39687964 435.90175152 C2.36488822 438.69683862 2.28553126 440.57834972 0.69532937 442.92663574 C-2.18021291 444.74722846 -4.71027616 444.35247041 -8 444 C-9.6949802 442.92761183 -9.6949802 442.92761183 -11 441 C-11.29482427 438.51131438 -11.40442893 436.27246098 -11.38031673 433.78321075 C-11.38497665 433.03945196 -11.38963657 432.29569317 -11.3944377 431.52939624 C-11.4064647 429.01718357 -11.39696296 426.50550408 -11.38768005 423.99328613 C-11.39184961 422.18204431 -11.39732503 420.37080511 -11.40399987 418.55957079 C-11.41852282 413.56679817 -11.41418849 408.57418965 -11.40683305 403.58140779 C-11.40212058 398.20301378 -11.4145941 392.82465627 -11.42485046 387.4462738 C-11.44208126 376.90385769 -11.44286968 366.36150106 -11.43763756 355.81907451 C-11.43360281 347.25413779 -11.43503112 338.68921871 -11.44038582 330.12428284 C-11.44150845 328.29861642 -11.44150845 328.29861642 -11.44265376 326.43606785 C-11.44418517 323.96384664 -11.44572352 321.49162543 -11.44726873 319.01940423 C-11.46100909 295.8151057 -11.45554515 272.61084085 -11.44408352 249.40654308 C-11.43414801 228.15648781 -11.44709461 206.90651958 -11.47101771 185.65647775 C-11.49537245 163.85955001 -11.50502562 142.06266288 -11.49836498 120.2657218 C-11.49486488 108.0192903 -11.49715689 95.77292577 -11.51461601 83.52650452 C-11.52929268 73.10210625 -11.53003301 62.67782212 -11.5125451 52.25342619 C-11.50399547 46.93056177 -11.50198163 41.60790164 -11.51719666 36.28504753 C-11.53093632 31.41826336 -11.52642023 26.55186056 -11.50695742 21.68509907 C-11.5031639 19.91866099 -11.50621455 18.15219314 -11.51656907 16.38578135 C-11.52959026 13.99564873 -11.51829105 11.60686183 -11.50057125 9.21678925 C-11.51022176 8.52122018 -11.51987227 7.82565112 -11.52981523 7.1090042 C-11.48171842 3.97786588 -11.35531418 2.38566101 -9.1952768 0.04113817 C-5.85935103 -1.5409674 -3.49811403 -0.90691845 0 0 Z " fill="#1A1A18" transform="translate(441,170)"/>
<path d="M0 0 C4.86332962 2.80887918 5.6586716 7.09857722 7.38623047 12.25634766 C7.75507355 13.29673187 8.12391663 14.33711609 8.50393677 15.4090271 C9.67692973 18.73366616 10.81694893 22.06856841 11.95654297 25.40478516 C12.74606435 27.66074542 13.53770578 29.91596494 14.33154297 32.17041016 C16.27289146 37.69850856 18.18729119 43.23538425 20.08154297 48.77978516 C24.68423479 41.87574743 29.71926839 31.74632081 28.81542969 23.29003906 C27.82719475 19.47490101 26.33703173 16.02487413 24.64013672 12.47900391 C22.91125816 8.85782045 22.79543184 5.80094705 23.08154297 1.77978516 C25.33154297 0.59228516 25.33154297 0.59228516 28.08154297 -0.22021484 C31.36762275 1.22952624 32.4548469 3.30217084 33.83154297 6.46728516 C34.24404297 7.56041016 34.65654297 8.65353516 35.08154297 9.77978516 C35.31228516 9.14169922 35.54302734 8.50361328 35.78076172 7.84619141 C38.45529728 1.06999657 38.45529728 1.06999657 41.64404297 -0.40771484 C44.08154297 -0.22021484 44.08154297 -0.22021484 47.08154297 1.77978516 C46.70936472 8.97523137 44.75161762 14.77968428 42.04248047 21.44775391 C40.07849234 28.25784284 43.22560513 34.29501199 45.64404297 40.65478516 C45.97339844 41.53392578 46.30275391 42.41306641 46.64208984 43.31884766 C47.45040911 45.47436569 48.26366591 47.62787956 49.08154297 49.77978516 C50.02375286 47.40657389 50.96045002 45.03139144 51.89404297 42.65478516 C52.19810059 41.88521484 52.5021582 41.11564453 52.81542969 40.32275391 C54.92972806 34.91114456 56.9083877 29.46125236 58.81982422 23.97509766 C59.54190095 21.92606315 60.26543164 19.87754734 60.98934937 17.8291626 C61.46693017 16.46447763 61.93768113 15.09738304 62.40151978 13.72796631 C63.06178469 11.7805284 63.74505299 9.84254877 64.43310547 7.90478516 C64.82320801 6.77298828 65.21331055 5.64119141 65.61523438 4.47509766 C67.08154297 1.77978516 67.08154297 1.77978516 69.60253906 0.31103516 C72.08154297 -0.22021484 72.08154297 -0.22021484 74.39404297 1.15478516 C74.95091797 1.69103516 75.50779297 2.22728516 76.08154297 2.77978516 C75.4958675 9.7512125 73.07467792 15.99015209 70.71435547 22.53759766 C70.27896454 23.75881317 69.84357361 24.98002869 69.39498901 26.23825073 C68.47622216 28.81336916 67.55283266 31.38676679 66.62597656 33.95898438 C65.44206227 37.24550764 64.26894458 40.53576068 63.09915352 43.82733345 C61.97631171 46.98270435 60.8450301 50.13502484 59.71435547 53.28759766 C59.29550079 54.46476349 58.87664612 55.64192932 58.44509888 56.85476685 C58.04813812 57.95295746 57.65117737 59.05114807 57.2421875 60.18261719 C56.89656769 61.14523468 56.55094788 62.10785217 56.19485474 63.09963989 C55.04259626 65.87354402 53.79099731 68.30890005 52.08154297 70.77978516 C49.64404297 71.46728516 49.64404297 71.46728516 47.08154297 70.77978516 C42.74397826 65.51210348 40.96038049 59.30706689 38.83154297 52.90478516 C38.46802734 51.83486328 38.10451172 50.76494141 37.72998047 49.66259766 C36.83933162 47.03752735 35.95680112 44.41001873 35.08154297 41.77978516 C34.78908691 42.58722168 34.49663086 43.3946582 34.1953125 44.2265625 C33.1076442 47.22120973 32.01500076 50.21397977 30.91894531 53.20556641 C30.44558627 54.50073386 29.97421757 55.79663055 29.50488281 57.09326172 C28.82994862 58.95682208 28.14725579 60.81756671 27.46435547 62.67822266 C26.85164795 64.35924072 26.85164795 64.35924072 26.2265625 66.07421875 C25.08154297 68.77978516 25.08154297 68.77978516 23.08154297 70.77978516 C20.64404297 71.15478516 20.64404297 71.15478516 18.08154297 70.77978516 C15.39438648 67.83757442 14.1480776 64.72505862 12.81323242 61.00488281 C12.39302322 59.84332672 11.97281403 58.68177063 11.53987122 57.48501587 C11.09109148 56.22144603 10.64275322 54.95771932 10.19482422 53.69384766 C9.72862275 52.39102351 9.26207994 51.08832147 8.79521179 49.78573608 C7.81978257 47.05884244 6.84967134 44.33012767 5.88305664 41.60009766 C4.64679156 38.11035777 3.39568115 34.62615555 2.14028645 31.14325905 C1.17361651 28.45523955 0.21582437 25.76412068 -0.73945045 23.07203293 C-1.19701287 21.78645008 -1.65750659 20.50190648 -2.12103844 19.2184639 C-2.76925394 17.42006197 -3.40406063 15.61684427 -4.03833008 13.81347656 C-4.40234421 12.79073639 -4.76635834 11.76799622 -5.1414032 10.71426392 C-5.97943294 7.54951473 -6.27989909 5.03610887 -5.91845703 1.77978516 C-2.91845703 -0.22021484 -2.91845703 -0.22021484 0 0 Z " fill="#1A1A18" transform="translate(535.91845703125,678.22021484375)"/>
<path d="M0 0 C1.99609375 -0.38818359 1.99609375 -0.38818359 4.4375 -0.3984375 C5.33339844 -0.40230469 6.22929687 -0.40617188 7.15234375 -0.41015625 C8.09207031 -0.39855469 9.03179687 -0.38695312 10 -0.375 C10.90878906 -0.38660156 11.81757813 -0.39820313 12.75390625 -0.41015625 C21.65107594 -0.37218824 29.94762722 1.29093632 37 7 C41.82399643 12.47588784 42.31719153 15.76538063 42.30859375 22.953125 C42.00369957 25.96347263 41.50909018 27.45060181 39.875 29.9375 C37.60355609 32.83810817 37.60355609 32.83810817 38.6875 35.875 C39.82950838 37.90618353 39.82950838 37.90618353 41 39 C41.08685603 40.56172745 41.10702219 42.12729344 41.09765625 43.69140625 C41.09443359 44.63564453 41.09121094 45.57988281 41.08789062 46.55273438 C41.07532227 48.04256836 41.07532227 48.04256836 41.0625 49.5625 C41.05798828 50.55958984 41.05347656 51.55667969 41.04882812 52.58398438 C41.03700007 55.05604849 41.02051849 57.52799518 41 60 C42.175625 59.938125 42.175625 59.938125 43.375 59.875 C46 60 46 60 48 62 C47.625 65.625 47.625 65.625 47 69 C39.79122183 70.34400949 39.79122183 70.34400949 36.125 68.75 C33.61841049 66.68574982 32.11690323 65.08394675 31.76049805 61.77929688 C31.76090088 60.93431641 31.76130371 60.08933594 31.76171875 59.21875 C31.74560547 58.29449219 31.72949219 57.37023437 31.71289062 56.41796875 C31.69596412 54.47272292 31.69075522 52.52733983 31.69726562 50.58203125 C31.72456734 45.22400163 31.72456734 45.22400163 29.0390625 40.85546875 C24.85574023 39.67790117 21.00899158 39.67947855 16.6875 39.8125 C15.85154297 39.82603516 15.01558594 39.83957031 14.15429688 39.85351562 C12.10258502 39.88868783 10.05120725 39.94248952 8 40 C8.02356567 41.15786011 8.02356567 41.15786011 8.04760742 42.33911133 C8.10989607 45.83016662 8.14897173 49.32110509 8.1875 52.8125 C8.21263672 54.02744141 8.23777344 55.24238281 8.26367188 56.49414062 C8.27817383 58.23920898 8.27817383 58.23920898 8.29296875 60.01953125 C8.31653442 61.62985229 8.31653442 61.62985229 8.34057617 63.27270508 C8 66 8 66 6.6418457 67.88549805 C5 69 5 69 2.4375 68.8125 C0 68 0 68 -2 66 C-2.25396729 63.38795471 -2.25396729 63.38795471 -2.25878906 60.03735352 C-2.26509338 58.78588028 -2.27139771 57.53440704 -2.27789307 56.24501038 C-2.274313 54.87297424 -2.27021096 53.50093939 -2.265625 52.12890625 C-2.26697187 50.72647535 -2.26891258 49.3240449 -2.27142334 47.9216156 C-2.27437458 44.98016929 -2.27007771 42.03884433 -2.26074219 39.09741211 C-2.24935803 35.32661283 -2.25590036 31.55609857 -2.26788712 27.78530979 C-2.27511474 24.8882584 -2.27281347 21.99127454 -2.26763153 19.09422112 C-2.26629698 17.703948 -2.26793595 16.31366875 -2.27259064 14.92340279 C-2.27766921 12.97961672 -2.26855623 11.03580918 -2.25878906 9.09204102 C-2.25719788 7.98554703 -2.25560669 6.87905304 -2.25396729 5.73902893 C-2 3 -2 3 0 0 Z M7 9 C7.33 16.26 7.66 23.52 8 31 C20.71781621 31.5011936 20.71781621 31.5011936 31.625 25.75 C33.49747891 22.00504217 33.15858316 19.9826296 32 16 C28.70120087 11.64087258 24.98963116 10.38262138 19.75 9.375 C15.51926322 8.95192632 11.25183784 9 7 9 Z " fill="#1A1A18" transform="translate(372,679)"/>
<path d="M0 0 C12.34271134 0.02321956 23.56459826 0.22508711 32.92626953 9.33374023 C39.50790563 17.33554376 41.96174125 26.63677055 41.48486328 36.81811523 C40.46328414 46.77851184 37.18329999 54.6603127 29.60986328 61.38061523 C21.20373381 67.52115219 12.35991671 68.5243964 2.23486328 68.63061523 C1.19930298 68.64475464 1.19930298 68.64475464 0.14282227 68.65917969 C-3.6247134 68.63473015 -6.11777206 68.1897128 -9.39013672 66.38061523 C-9.43642296 58.07060732 -9.47198691 49.76065302 -9.49376106 41.45054817 C-9.50421015 37.59206727 -9.51838972 33.73367438 -9.54101562 29.87524414 C-9.56270412 26.15349331 -9.57469686 22.43182729 -9.5798912 18.71001816 C-9.58359417 17.28820332 -9.59082491 15.86639326 -9.60159683 14.44461441 C-9.61605791 12.4573441 -9.61695318 10.46998893 -9.6171875 8.48266602 C-9.62162872 7.35015411 -9.62606995 6.21764221 -9.63064575 5.05081177 C-9.09733305 -0.87017051 -4.78042996 0.07616391 0 0 Z M-0.39013672 9.38061523 C-0.39013672 25.55061523 -0.39013672 41.72061523 -0.39013672 58.38061523 C7.7272676 59.73351595 15.5300219 58.93194184 22.60986328 54.38061523 C28.25231345 49.81291748 31.06709935 44.3960632 32.03173828 37.25952148 C32.38993868 28.81196201 30.71895776 22.3091534 25.25830078 15.75952148 C17.92556689 8.85692003 9.28748669 9.38061523 -0.39013672 9.38061523 Z " fill="#1A1A18" transform="translate(88.39013671875,679.619384765625)"/>
<path d="M0 0 C4.41346504 1.76538602 5.61813431 6.16623822 7.41357422 10.32446289 C8.13124728 12.03887142 8.84471174 13.75504581 9.5546875 15.47265625 C9.9381131 16.39155136 10.3215387 17.31044647 10.71658325 18.25718689 C11.93969835 21.19078964 13.15743104 24.12659164 14.375 27.0625 C15.5840921 29.96639818 16.79423785 32.86985569 18.00445557 35.77328491 C18.78295655 37.64421423 19.55947266 39.51597079 20.33392334 41.38858032 C21.91842954 45.21922843 23.50591009 49.04496329 25.18457031 52.83544922 C25.64186523 53.87846191 26.09916016 54.92147461 26.5703125 55.99609375 C26.95203613 56.84228271 27.33375977 57.68847168 27.72705078 58.56030273 C28.66418817 61.51823511 28.76939767 63.91531634 28.5 67 C26.5 69 26.5 69 24.0625 69.375 C21.5 69 21.5 69 18.5 65 C16.025 59.06 16.025 59.06 13.5 53 C4.26 53 -4.98 53 -14.5 53 C-16.38992664 57.51508503 -16.38992664 57.51508503 -18.26904297 62.03466797 C-19.43904246 64.79732037 -20.3598408 66.8598408 -22.5 69 C-25 69.25 -25 69.25 -27.5 69 C-29.5 67 -29.5 67 -29.85791016 64.46655273 C-29.3686607 59.7279081 -27.66169527 55.87948821 -25.7734375 51.53515625 C-25.19548935 50.16960854 -25.19548935 50.16960854 -24.60586548 48.776474 C-23.37227118 45.86742847 -22.12415553 42.96489285 -20.875 40.0625 C-19.65396166 37.19913362 -18.43595675 34.33449318 -17.21856689 31.46957397 C-16.42552626 29.6053554 -15.63025814 27.74208274 -14.83270264 25.87979126 C-13.06120319 21.73368218 -11.31688812 17.58388852 -9.68066406 13.38232422 C-9.40993073 12.68731308 -9.13919739 11.99230194 -8.86026001 11.27622986 C-8.15741102 9.45343351 -7.46613914 7.6261846 -6.77587891 5.79858398 C-4.13229521 0 -4.13229521 0 0 0 Z M-1.5 19 C-3.0056651 22.62267294 -4.50356546 26.24850549 -6 29.875 C-6.42925781 30.90753906 -6.85851562 31.94007813 -7.30078125 33.00390625 C-7.70683594 33.99003906 -8.11289062 34.97617187 -8.53125 35.9921875 C-8.90830078 36.90339355 -9.28535156 37.81459961 -9.67382812 38.75341797 C-10.61504919 40.91390327 -10.61504919 40.91390327 -10.5 43 C-3.9 43 2.7 43 9.5 43 C7.2183577 34.63397824 4.01779922 26.90081767 0.5 19 C-0.16 19 -0.82 19 -1.5 19 Z " fill="#1A1A18" transform="translate(663.5,679)"/>
<path d="M0 0 C0.76928833 -0.0033284 1.53857666 -0.0066568 2.33117676 -0.01008606 C3.95857138 -0.01515129 5.5859764 -0.01749451 7.21337891 -0.01733398 C9.70883175 -0.01952255 12.20384405 -0.03768779 14.69921875 -0.05664062 C16.27864432 -0.05957416 17.85807199 -0.06155922 19.4375 -0.0625 C20.1864856 -0.06968552 20.93547119 -0.07687103 21.70715332 -0.08427429 C26.9899224 -0.06085885 26.9899224 -0.06085885 29.21875 2.16796875 C29.40625 5.23046875 29.40625 5.23046875 29.21875 8.16796875 C28.21875 9.16796875 28.21875 9.16796875 25.44311523 9.28149414 C24.23341064 9.27625732 23.02370605 9.27102051 21.77734375 9.265625 C20.47216797 9.26240234 19.16699219 9.25917969 17.82226562 9.25585938 C16.4335931 9.24750276 15.04492123 9.2390378 13.65625 9.23046875 C12.26367344 9.22545541 10.87109519 9.22089222 9.47851562 9.21679688 C6.05857549 9.20496317 2.6386575 9.18702706 -0.78125 9.16796875 C-0.78125 16.09796875 -0.78125 23.02796875 -0.78125 30.16796875 C1.89097656 30.13316406 1.89097656 30.13316406 4.6171875 30.09765625 C6.94270416 30.07890208 9.26822533 30.06070151 11.59375 30.04296875 C12.769375 30.02621094 13.945 30.00945313 15.15625 29.9921875 C16.83847656 29.98251953 16.83847656 29.98251953 18.5546875 29.97265625 C19.59157715 29.96218262 20.6284668 29.95170898 21.69677734 29.94091797 C24.21875 30.16796875 24.21875 30.16796875 26.21875 32.16796875 C26.46875 34.66796875 26.46875 34.66796875 26.21875 37.16796875 C24.21875 39.16796875 24.21875 39.16796875 21.69677734 39.39501953 C20.6598877 39.3845459 19.62299805 39.37407227 18.5546875 39.36328125 C17.43320312 39.35683594 16.31171875 39.35039063 15.15625 39.34375 C13.980625 39.32699219 12.805 39.31023438 11.59375 39.29296875 C10.41039062 39.28394531 9.22703125 39.27492188 8.0078125 39.265625 C5.07803943 39.2419978 2.14836986 39.20612588 -0.78125 39.16796875 C-0.78125 46.09796875 -0.78125 53.02796875 -0.78125 60.16796875 C1.21679688 60.14476562 3.21484375 60.1215625 5.2734375 60.09765625 C7.20621239 60.08375139 9.13898852 60.06991669 11.07177734 60.05810547 C13.0778636 60.04308768 15.08386324 60.01767894 17.08984375 59.9921875 C18.34667969 59.98574219 19.60351562 59.97929688 20.8984375 59.97265625 C22.06101074 59.96218262 23.22358398 59.95170898 24.42138672 59.94091797 C27.21875 60.16796875 27.21875 60.16796875 29.21875 62.16796875 C29.40625 65.23046875 29.40625 65.23046875 29.21875 68.16796875 C27.1718766 70.21484215 22.9127028 69.35609978 20.09765625 69.37109375 C18.8750132 69.37964386 18.8750132 69.37964386 17.62767029 69.3883667 C15.90014958 69.39783002 14.17261071 69.40435595 12.44506836 69.40820312 C9.79574274 69.41791562 7.14719042 69.44892839 4.49804688 69.48046875 C2.82292129 69.48699778 1.14779014 69.49224864 -0.52734375 69.49609375 C-1.32321396 69.50844055 -2.11908417 69.52078735 -2.93907166 69.5335083 C-5.17358398 69.52441406 -5.17358398 69.52441406 -8.78125 69.16796875 C-11.10945768 65.67565722 -11.02958331 64.30802124 -11.02416992 60.18359375 C-11.02724655 58.9522168 -11.03032318 57.72083984 -11.03349304 56.45214844 C-11.02659484 55.10741998 -11.01932784 53.76269337 -11.01171875 52.41796875 C-11.01052641 51.03938846 -11.0100739 49.66080735 -11.0103302 48.28222656 C-11.00876642 45.39382842 -11.00048514 42.50555441 -10.98706055 39.6171875 C-10.97007087 35.91486265 -10.9662463 32.2126742 -10.96700573 28.51031494 C-10.96673379 25.6638865 -10.96124869 22.81748786 -10.95400429 19.97106934 C-10.95082228 18.60591864 -10.9488513 17.24076456 -10.94811058 15.87561035 C-10.9459421 13.96784247 -10.93639783 12.06008726 -10.92651367 10.15234375 C-10.92270187 9.06663086 -10.91889008 7.98091797 -10.91496277 6.86230469 C-10.78125 4.16796875 -10.78125 4.16796875 -9.78125 1.16796875 C-6.68181455 -0.38174898 -3.40181402 0.00505433 0 0 Z " fill="#1A1A18" transform="translate(812.78125,678.83203125)"/>
<path d="M0 0 C1.15181007 -0.00074776 1.15181007 -0.00074776 2.32688904 -0.00151062 C3.94833975 0.00082792 5.56979423 0.01054356 7.19116211 0.02709961 C9.67790018 0.05072715 12.16356858 0.04765502 14.65039062 0.04101562 C16.22526683 0.04659131 17.80013851 0.0537005 19.375 0.0625 C20.12084854 0.06158859 20.86669708 0.06067719 21.63514709 0.05973816 C26.89005084 0.13223834 26.89005084 0.13223834 29.12109375 2.36328125 C28.79109375 4.67328125 28.46109375 6.98328125 28.12109375 9.36328125 C18.55109375 9.36328125 8.98109375 9.36328125 -0.87890625 9.36328125 C-0.87890625 16.29328125 -0.87890625 23.22328125 -0.87890625 30.36328125 C0.81878906 30.32847656 2.51648438 30.29367187 4.265625 30.2578125 C6.48827138 30.22967774 8.71092843 30.20237725 10.93359375 30.17578125 C12.05314453 30.15064453 13.17269531 30.12550781 14.32617188 30.09960938 C15.39931641 30.08994141 16.47246094 30.08027344 17.578125 30.0703125 C18.5678833 30.05460205 19.5576416 30.0388916 20.57739258 30.02270508 C23.12109375 30.36328125 23.12109375 30.36328125 24.9831543 31.7175293 C26.12109375 33.36328125 26.12109375 33.36328125 25.87109375 35.98828125 C25.12109375 38.36328125 25.12109375 38.36328125 24.12109375 39.36328125 C22.26739764 39.4506577 20.41041834 39.47026278 18.5546875 39.4609375 C17.42998047 39.45771484 16.30527344 39.45449219 15.14648438 39.45117188 C13.96248047 39.44279297 12.77847656 39.43441406 11.55859375 39.42578125 C10.37072266 39.42126953 9.18285156 39.41675781 7.95898438 39.41210938 C5.01299963 39.40027811 2.06704059 39.38234201 -0.87890625 39.36328125 C-0.87890625 46.29328125 -0.87890625 53.22328125 -0.87890625 60.36328125 C1.11914062 60.34007812 3.1171875 60.316875 5.17578125 60.29296875 C7.10855614 60.27906389 9.04133227 60.26522919 10.97412109 60.25341797 C12.98020735 60.23840018 14.98620699 60.21299144 16.9921875 60.1875 C18.24902344 60.18105469 19.50585938 60.17460938 20.80078125 60.16796875 C21.96335449 60.15749512 23.12592773 60.14702148 24.32373047 60.13623047 C27.12109375 60.36328125 27.12109375 60.36328125 29.12109375 62.36328125 C28.74609375 65.98828125 28.74609375 65.98828125 28.12109375 69.36328125 C22.88836044 69.41263949 17.65576199 69.44898074 12.42285156 69.47314453 C10.64190308 69.48321556 8.86097118 69.4968731 7.08007812 69.51416016 C4.52339592 69.53836038 1.9669319 69.54975309 -0.58984375 69.55859375 C-1.38885101 69.56891632 -2.18785828 69.57923889 -3.01107788 69.58987427 C-4.96847845 69.59027351 -6.92533702 69.48569194 -8.87890625 69.36328125 C-11.60907368 66.63311382 -11.13789197 65.13040594 -11.15356445 61.30883789 C-11.16309647 60.0373439 -11.17262848 58.76584991 -11.18244934 57.45582581 C-11.18218792 56.06169609 -11.1812509 54.66756636 -11.1796875 53.2734375 C-11.18357313 51.84858576 -11.18790752 50.42373518 -11.19267273 48.99888611 C-11.20014079 46.01036833 -11.19983959 43.02196866 -11.19458008 40.03344727 C-11.18878614 36.20202451 -11.20571122 32.37108527 -11.22892475 28.53974247 C-11.24365129 25.59636097 -11.24453527 22.65309618 -11.24141502 19.70968437 C-11.24192884 18.29707316 -11.24717786 16.88445552 -11.25722694 15.47187996 C-11.26955095 13.49699712 -11.2608714 11.52201685 -11.2512207 9.54711914 C-11.25185013 8.42286026 -11.25247955 7.29860138 -11.25312805 6.14027405 C-10.87890625 3.36328125 -10.87890625 3.36328125 -9.57574463 1.50006104 C-6.67612689 -0.44250867 -3.37122219 -0.04174118 0 0 Z " fill="#1A1A18" transform="translate(466.87890625,678.63671875)"/>
<path d="M0 0 C1.15628906 0.00607269 1.15628906 0.00607269 2.3359375 0.01226807 C3.12742188 0.01035461 3.91890625 0.00844116 4.734375 0.00646973 C6.4088574 0.00510789 8.08335035 0.00880425 9.7578125 0.01715088 C12.32576131 0.02785067 14.89301053 0.01725582 17.4609375 0.00445557 C19.08593905 0.00577716 20.71094016 0.00833956 22.3359375 0.01226807 C23.10679687 0.0082196 23.87765625 0.00417114 24.671875 0 C30.10601618 0.04797174 30.10601618 0.04797174 32.3359375 2.27789307 C32.5859375 4.77789307 32.5859375 4.77789307 32.3359375 7.27789307 C30.3359375 9.27789307 30.3359375 9.27789307 27.44677734 9.50494385 C26.24230957 9.49447021 25.0378418 9.48399658 23.796875 9.47320557 C21.84394531 9.4635376 21.84394531 9.4635376 19.8515625 9.45367432 C18.47135155 9.43696236 17.09114321 9.42003245 15.7109375 9.40289307 C14.32292298 9.39286312 12.93490161 9.3837373 11.546875 9.37554932 C8.14315558 9.35191238 4.73952522 9.31604038 1.3359375 9.27789307 C1.3359375 16.20789307 1.3359375 23.13789307 1.3359375 30.27789307 C4.00816406 30.24308838 4.00816406 30.24308838 6.734375 30.20758057 C9.05989166 30.1888264 11.38541283 30.17062583 13.7109375 30.15289307 C14.8865625 30.13613525 16.0621875 30.11937744 17.2734375 30.10211182 C18.95566406 30.09244385 18.95566406 30.09244385 20.671875 30.08258057 C21.70876465 30.07210693 22.7456543 30.0616333 23.81396484 30.05084229 C26.3359375 30.27789307 26.3359375 30.27789307 28.3359375 32.27789307 C28.5234375 35.34039307 28.5234375 35.34039307 28.3359375 38.27789307 C27.3359375 39.27789307 27.3359375 39.27789307 24.83569336 39.39141846 C23.75167236 39.38618164 22.66765137 39.38094482 21.55078125 39.37554932 C19.79604492 39.37071533 19.79604492 39.37071533 18.00585938 39.36578369 C16.77416016 39.35740479 15.54246094 39.34902588 14.2734375 39.34039307 C12.42008789 39.33362549 12.42008789 39.33362549 10.52929688 39.32672119 C7.46482337 39.31488925 4.40037457 39.29695314 1.3359375 39.27789307 C1.3359375 46.20789307 1.3359375 53.13789307 1.3359375 60.27789307 C3.40617188 60.25468994 5.47640625 60.23148682 7.609375 60.20758057 C9.61164877 60.19367589 11.61392373 60.1798413 13.61621094 60.16802979 C15.00914531 60.15796429 16.40205852 60.14431073 17.79492188 60.12701416 C19.7954811 60.10279086 21.79619365 60.09248493 23.796875 60.08258057 C25.60357666 60.06687012 25.60357666 60.06687012 27.44677734 60.05084229 C30.3359375 60.27789307 30.3359375 60.27789307 32.3359375 62.27789307 C32.5859375 64.77789307 32.5859375 64.77789307 32.3359375 67.27789307 C29.79028338 69.82354719 28.14418036 69.52513317 24.671875 69.55578613 C23.51558594 69.54971344 23.51558594 69.54971344 22.3359375 69.54351807 C21.54445312 69.54543152 20.75296875 69.54734497 19.9375 69.54931641 C18.2630176 69.55067824 16.58852465 69.54698188 14.9140625 69.53863525 C12.34611369 69.52793547 9.77886447 69.53853032 7.2109375 69.55133057 C5.58593595 69.55000897 3.96093484 69.54744658 2.3359375 69.54351807 C1.56507813 69.54756653 0.79421875 69.55161499 0 69.55578613 C-5.43414118 69.50781439 -5.43414118 69.50781439 -7.6640625 67.27789307 C-7.91802979 64.58319092 -7.91802979 64.58319092 -7.92285156 61.11578369 C-7.92915588 59.82104126 -7.93546021 58.52629883 -7.94195557 57.19232178 C-7.93837589 55.7729275 -7.93427396 54.35353445 -7.9296875 52.93414307 C-7.93103419 51.48447606 -7.93297476 50.0348095 -7.93548584 48.58514404 C-7.93843692 45.54534612 -7.93414006 42.50566564 -7.92480469 39.46588135 C-7.91341006 35.56495058 -7.91996963 31.664295 -7.93194962 27.76337433 C-7.93916871 24.76942869 -7.93688008 21.77554854 -7.93169403 18.78160095 C-7.93035767 17.34305285 -7.9320048 15.90449885 -7.93665314 14.46595764 C-7.9417189 12.45730703 -7.93263194 10.44863563 -7.92285156 8.44000244 C-7.92126038 7.29575806 -7.91966919 6.15151367 -7.91802979 4.97259521 C-7.42520266 -0.25651254 -4.58784134 0.04050074 0 0 Z " fill="#1A1A18" transform="translate(174.6640625,678.7221069335938)"/>
<path d="M0 0 C3.84320633 2.48105725 6.35874113 5.48237587 7.73046875 9.80859375 C7.91796875 12.24609375 7.91796875 12.24609375 5.91796875 15.24609375 C3.04296875 15.74609375 3.04296875 15.74609375 -0.08203125 15.24609375 C-2.33203125 12.80859375 -2.33203125 12.80859375 -4.08203125 10.24609375 C-6.92286766 8.82567554 -8.93680403 8.93157103 -12.08203125 9.24609375 C-14.38478681 11.11319285 -15.76026996 12.60257116 -17.08203125 15.24609375 C-17.39206602 18.45805394 -17.2164405 21.2119561 -16.08203125 24.24609375 C-13.3678777 26.35710207 -10.33651384 27.22450729 -7.08203125 28.24609375 C0.35332378 30.90393114 4.98280667 33.19759433 9.73046875 39.74609375 C11.99720526 46.42700136 12.25648334 54.22388172 9.29296875 60.74609375 C6.50943055 65.39185821 3.03915205 68.25620821 -1.89453125 70.55859375 C-8.95235352 72.08086914 -14.6482632 71.8341567 -21.08203125 68.24609375 C-25.08535884 64.95446884 -26.79933832 62.26025704 -28.08203125 57.24609375 C-26.76203125 55.92609375 -25.44203125 54.60609375 -24.08203125 53.24609375 C-20.70589211 54.30716605 -19.17627756 55.13613972 -16.83203125 57.87109375 C-13.45614844 60.78662891 -11.5869035 61.00141045 -7.23828125 60.71875 C-3.50784357 59.90102725 -2.14143692 58.39955868 -0.08203125 55.24609375 C0.95198973 51.39761833 1.49473526 47.91568101 0.17578125 44.09765625 C-1.37637825 41.81280034 -2.60067695 41.21997884 -5.14453125 40.18359375 C-5.94503906 39.85230469 -6.74554688 39.52101563 -7.5703125 39.1796875 C-9.9722716 38.28689088 -12.38482158 37.50444181 -14.83203125 36.74609375 C-19.76639202 35.1385581 -22.77175584 33.00818827 -25.89453125 28.80859375 C-28.14918154 22.04464288 -28.43019066 14.26085581 -25.39453125 7.68359375 C-20.17962463 -1.08188758 -9.42840576 -3.41403811 0 0 Z " fill="#1A1A18" transform="translate(273.08203125,678.75390625)"/>
<path d="M0 0 C3.18408203 1.06616211 3.18408203 1.06616211 4.31011963 2.56588745 C5.37297942 4.71663337 6.26612953 6.8862837 7.12939453 9.12475586 C7.46655487 9.94307388 7.80371521 10.76139191 8.15109253 11.60450745 C9.22632683 14.22902503 10.26786848 16.86548789 11.30908203 19.50366211 C12.01654116 21.24608377 12.72615418 22.98763256 13.43798828 24.72827148 C15.84310384 30.6310022 18.19456053 36.55432744 20.53076172 42.48461914 C20.8881543 43.38937988 21.24554687 44.29414062 21.61376953 45.22631836 C21.9023584 45.9663208 22.19094727 46.70632324 22.48828125 47.46875 C23.07286693 49.07691389 23.07286693 49.07691389 24.18408203 50.06616211 C24.64258545 48.93710449 25.10108887 47.80804687 25.57348633 46.64477539 C27.29342614 42.41250093 29.0186379 38.18239168 30.74536133 33.95288086 C31.48863892 32.13021531 32.23053036 30.30698381 32.97094727 28.4831543 C35.3354562 22.66037168 37.73236237 16.85279478 40.18408203 11.06616211 C40.66570801 9.92630859 41.14733398 8.78645508 41.64355469 7.61206055 C42.05524902 6.70746094 42.46694336 5.80286133 42.89111328 4.87084961 C43.22216064 4.13592285 43.55320801 3.40099609 43.89428711 2.64379883 C45.18408203 1.06616211 45.18408203 1.06616211 47.71020508 0.26586914 C50.18408203 0.06616211 50.18408203 0.06616211 52.05908203 1.06616211 C53.83461709 4.22266888 52.8821492 6.56903187 52.18408203 10.06616211 C51.22791667 12.90958786 50.06320073 15.64417491 48.86767578 18.39428711 C48.5329274 19.18277039 48.19817902 19.97125366 47.85328674 20.78363037 C46.78383193 23.29787802 45.70303512 25.80705536 44.62158203 28.31616211 C43.92223965 29.95385235 43.22366591 31.59187105 42.52587891 33.23022461 C41.47941341 35.68620199 40.43139743 38.14144301 39.3777771 40.59436035 C37.53943829 44.87446257 35.72333038 49.1622168 33.94238281 53.46655273 C33.57983902 54.33979187 33.21729523 55.21303101 32.84376526 56.11273193 C32.15014383 57.78652801 31.46046089 59.46196315 30.7752533 61.13922119 C30.46423172 61.88822693 30.15321014 62.63723267 29.83276367 63.40893555 C29.5617836 64.06875427 29.29080353 64.728573 29.01161194 65.40838623 C28.18408203 67.06616211 28.18408203 67.06616211 26.18408203 69.06616211 C23.74658203 69.44116211 23.74658203 69.44116211 21.18408203 69.06616211 C17.89947808 65.62403521 16.41870023 61.19142491 14.67236328 56.84741211 C14.34252945 56.04056976 14.01269562 55.23372742 13.67286682 54.4024353 C12.60790301 51.79281766 11.55161605 49.17980852 10.49658203 46.56616211 C9.77368122 44.78237191 9.0505366 42.99868051 8.32714844 41.21508789 C7.2573979 38.5766665 6.18835486 35.93797509 5.12213135 33.29812622 C3.21652438 28.5850034 1.27775039 23.89013981 -0.71826172 19.21459961 C-1.10602783 18.29356445 -1.49379395 17.3725293 -1.89331055 16.42358398 C-2.5688065 14.82292147 -3.25657569 13.22735639 -3.95922852 11.63842773 C-5.30184753 8.40795217 -5.94876254 6.57973647 -5.05810547 3.13647461 C-3.22163758 0.0756948 -3.22163758 0.0756948 0 0 Z " fill="#1A1A18" transform="translate(716.81591796875,678.933837890625)"/>
<path d="M0 0 C2.5 0.25 2.5 0.25 4.5 2.25 C4.74723816 4.98939514 4.74723816 4.98939514 4.74291992 8.51977539 C4.74599655 9.83776627 4.74907318 11.15575714 4.75224304 12.51368713 C4.74534581 13.95834527 4.73807888 15.40300169 4.73046875 16.84765625 C4.72927708 18.32213806 4.72882376 19.79662064 4.7290802 21.27110291 C4.727515 24.36218005 4.71922186 27.45314143 4.70581055 30.54418945 C4.68880575 34.51465753 4.6849966 38.48499847 4.68575573 42.4554987 C4.68548438 45.50000735 4.68000909 48.54448799 4.67275429 51.58898735 C4.6695631 53.05347926 4.66759917 54.51797436 4.66686058 55.98246956 C4.66470263 58.0248643 4.65517366 60.0672473 4.64526367 62.10961914 C4.64145187 63.27384903 4.63764008 64.43807892 4.63371277 65.6375885 C4.5 68.25 4.5 68.25 3.5 69.25 C0.5625 69.4375 0.5625 69.4375 -2.5 69.25 C-5.250116 66.499884 -4.7534349 64.93814059 -4.75878906 61.08789062 C-4.76509338 59.79314819 -4.77139771 58.49840576 -4.77789307 57.16442871 C-4.77431339 55.74503443 -4.77021146 54.32564138 -4.765625 52.90625 C-4.76697169 51.456583 -4.76891226 50.00691643 -4.77142334 48.55725098 C-4.77437442 45.51745305 -4.77007756 42.47777257 -4.76074219 39.43798828 C-4.74934756 35.53705751 -4.75590713 31.63640193 -4.76788712 27.73548126 C-4.77510621 24.74153562 -4.77281758 21.74765547 -4.76763153 18.75370789 C-4.76629517 17.31515979 -4.7679423 15.87660579 -4.77259064 14.43806458 C-4.7776564 12.42941396 -4.76856944 10.42074257 -4.75878906 8.41210938 C-4.75719788 7.26786499 -4.75560669 6.12362061 -4.75396729 4.94470215 C-4.41471217 1.34505943 -3.63071849 0.36307185 0 0 Z " fill="#1A1A18" transform="translate(326.5,678.75)"/>
</svg>
