<?xml version="1.0" encoding="UTF-8"?>
<svg version="1.1" xmlns="http://www.w3.org/2000/svg" width="921" height="921">
<path d="M0 0 C303.93 0 607.86 0 921 0 C921 303.93 921 607.86 921 921 C617.07 921 313.14 921 0 921 C0 617.07 0 313.14 0 0 Z " fill="#FEFEFE" transform="translate(0,0)"/>
<path d="M0 0 C303.93 0 607.86 0 921 0 C921 303.93 921 607.86 921 921 C617.07 921 313.14 921 0 921 C0 617.07 0 313.14 0 0 Z M17 17 C17 309.71 17 602.42 17 904 C309.71 904 602.42 904 904 904 C904 611.29 904 318.58 904 17 C611.29 17 318.58 17 17 17 Z " fill="#232321" transform="translate(0,0)"/>
<path d="M0 0 C303.93 0 607.86 0 921 0 C921 303.93 921 607.86 921 921 C617.07 921 313.14 921 0 921 C0 617.07 0 313.14 0 0 Z M5.6383676 5.6383676 C3.5111459 8.70466096 3.49949858 10.56731838 3.49860334 14.2875151 C3.48858927 15.5910323 3.4785752 16.8945495 3.46825767 18.23756722 C3.47736538 19.69048965 3.48683818 21.14340983 3.49663544 22.59632778 C3.4924649 24.14118908 3.4865414 25.68604647 3.47901797 27.23089507 C3.46336146 31.50175194 3.47280305 35.77224983 3.48612978 40.04310122 C3.49623448 44.67970022 3.48325374 49.3162422 3.47315645 53.95283324 C3.45867343 62.08755688 3.45917009 70.22217446 3.46934509 78.35690308 C3.48443446 90.45327994 3.47676125 102.54956683 3.46451186 114.64594303 C3.4434135 136.24650954 3.44528856 157.84702882 3.45682751 179.44759986 C3.46687639 198.35085516 3.46952279 217.25409312 3.46473694 236.15735054 C3.4644314 237.40960745 3.46412586 238.66186435 3.46381106 239.95206844 C3.46256577 245.03496736 3.46129218 250.11786626 3.459972 255.20076516 C3.45086399 290.69063096 3.44927248 326.18049188 3.46422577 361.6703558 C3.46450677 362.33955382 3.46478776 363.00875184 3.46507727 363.6982286 C3.46965729 374.56616938 3.47453504 385.43411002 3.47943797 396.30205066 C3.49886278 439.40540392 3.49796334 482.5087075 3.47851562 525.61206055 C3.47363101 536.47327386 3.46878687 547.33448719 3.46422577 558.19570065 C3.46394398 558.86443152 3.46366218 559.53316239 3.46337185 560.22215783 C3.44826897 596.31025456 3.45159217 632.39834918 3.46096468 668.48644739 C3.46224761 673.56057615 3.46349897 678.63470492 3.46473694 683.70883369 C3.46505325 684.95827861 3.46536956 686.20772353 3.46569545 687.49503042 C3.47025133 706.38885974 3.46491309 725.28266984 3.45481873 744.17649651 C3.44340159 765.65369726 3.44619834 787.13084326 3.4679417 808.60803717 C3.47971797 820.63801239 3.48040892 832.66786914 3.465357 844.69784138 C3.45642076 852.72293452 3.46190905 860.74793223 3.47937608 868.77301117 C3.48893584 873.35246769 3.49205299 877.93168799 3.47775215 882.51113748 C3.4648893 886.6723344 3.47023452 890.83308425 3.49047479 894.9942482 C3.49452328 896.49491204 3.49178715 897.99561239 3.48165104 899.49624746 C3.46890425 901.5265114 3.4830362 903.55689146 3.49860334 905.58713573 C3.49887438 906.71351274 3.49914542 907.83988976 3.49942467 909.00039941 C4.13229851 912.79277317 5.15454578 914.42355029 8 917 C10.93998773 917.74656541 10.93998773 917.74656541 14.2875151 917.62674582 C15.5910323 917.63926341 16.8945495 917.651781 18.23756722 917.66467792 C19.69049091 917.65329326 21.14341109 917.64145227 22.59632778 917.6292057 C24.14119219 917.63441889 25.68605049 917.64182327 27.23089507 917.65122753 C31.50182027 917.67079849 35.77218459 917.65899645 40.04310122 917.64233777 C44.67971241 917.62970687 49.3162345 917.6459328 53.95283324 917.65855443 C62.08757584 917.67665825 70.22215271 917.67603742 78.35690308 917.66331863 C90.45329694 917.6444569 102.5495502 917.65404842 114.64594303 917.66936017 C136.24651754 917.69573314 157.84701827 917.6933893 179.44759986 917.67896561 C198.35085801 917.66640451 217.25408907 917.66309651 236.15735054 917.66907883 C238.0357359 917.66965172 238.0357359 917.66965172 239.95206844 917.67023618 C245.03496736 917.67179279 250.11786627 917.67338478 255.20076516 917.675035 C290.69063223 917.68642001 326.18049167 917.68840941 361.6703558 917.66971779 C362.33955382 917.66936654 363.00875184 917.6690153 363.6982286 917.66865341 C374.56616943 917.66292839 385.43411005 917.65683121 396.30205066 917.65070254 C439.40541328 917.62642152 482.50869826 917.62754582 525.61206055 917.65185547 C536.47327383 917.65796124 547.33448714 917.66401642 558.19570065 917.66971779 C558.86443152 917.67007003 559.53316239 917.67042227 560.22215783 917.67078519 C596.31025467 917.68966379 632.39834823 917.68550979 668.48644739 917.67379415 C673.56057615 917.67219049 678.63470492 917.67062629 683.70883369 917.66907883 C684.95827861 917.66868344 686.20772353 917.66828805 687.49503042 917.66788069 C706.38886384 917.66218584 725.28266724 917.66885863 744.17649651 917.68147659 C765.65370881 917.69574802 787.13083557 917.69225208 808.60803717 917.66507287 C820.63803516 917.65035251 832.66784805 917.64948882 844.69784138 917.66830375 C852.72295508 917.67947408 860.74791966 917.67261372 868.77301117 917.6507799 C873.35251329 917.63883009 877.93164635 917.6349336 882.51113748 917.65280981 C886.6724244 917.66888872 890.83301281 917.66220728 894.9942482 917.63690651 C896.49491059 917.63184591 897.99563002 917.63526621 899.49624746 917.6479362 C901.52649332 917.66386954 903.5569206 917.64620447 905.58713573 917.62674582 C906.71351274 917.62640702 907.83988976 917.62606823 909.00039941 917.62571917 C913.06624569 916.77758027 914.53298058 915.30144486 917 912 C917.74173327 908.95420414 917.74173327 908.95420414 917.62674582 905.58713573 C917.64552221 903.62810466 917.64552221 903.62810466 917.66467792 901.6294972 C917.65329395 900.17893831 917.64145298 898.72838294 917.6292057 897.27783108 C917.63442032 895.73149856 917.64182578 894.18517215 917.65122753 892.63885942 C917.67077786 888.36852651 917.65900714 884.09875544 917.64233777 879.82843123 C917.62969704 875.19073908 917.64593673 870.5531356 917.65855443 865.91545588 C917.6766509 857.78039565 917.67604189 849.64550117 917.66331863 841.5104332 C917.64445038 829.4136366 917.65405178 817.31698051 917.66936017 805.22018494 C917.69572748 783.61897005 917.69339166 762.01782898 917.67896561 740.41660702 C917.66640328 721.51400798 917.6630971 702.61143605 917.66907883 683.70883369 C917.66946075 682.4565004 917.66984268 681.20416711 917.67023618 679.91388433 C917.67179279 674.83066548 917.67338478 669.74744665 917.675035 664.66422784 C917.68641917 629.17471525 917.68841119 593.68521029 917.66971779 558.19570065 C917.66936654 557.52657287 917.6690153 556.8574451 917.66865341 556.16804072 C917.66292842 545.30129662 917.65683122 534.43455272 917.65070254 523.56780883 C917.62641874 480.46436935 917.62754852 437.36100751 917.65185547 394.25756836 C917.65796122 383.39516425 917.66401639 372.53276013 917.66971779 361.6703558 C917.67024615 360.66715382 917.67024615 360.66715382 917.67078519 359.64368513 C917.68966192 323.55538769 917.68551062 287.46709354 917.67379415 251.37879378 C917.67219048 246.30497937 917.67062629 241.23116496 917.66907883 236.15735054 C917.66848575 234.28330178 917.66848575 234.28330178 917.66788069 232.37139345 C917.66218522 213.47665363 917.66885971 194.58194384 917.68147659 175.68720818 C917.6957454 154.21108945 917.69225758 132.73505627 917.66507287 111.25894826 C917.65034864 99.22873488 917.64949436 87.1987066 917.66830375 75.16849787 C917.67946934 67.14455239 917.67262243 59.12075612 917.6507799 51.09683285 C917.63882349 46.51719537 917.63494702 41.93792712 917.65280981 37.35830056 C917.66887221 33.19807354 917.66223163 29.0385458 917.63690651 24.8783705 C917.63184001 23.37697281 917.63528137 21.8755182 917.6479362 20.3741653 C917.66383351 18.34533189 917.64622828 16.31631726 917.62674582 14.2875151 C917.62640702 13.16120585 917.62606823 12.0348966 917.62571917 10.87445676 C917.21614486 7.84461298 917.21614486 7.84461298 914.8616324 5.6383676 C911.47759823 3.70090983 909.47149994 3.49953803 905.58713573 3.49860334 C904.28111502 3.48858927 902.9750943 3.4785752 901.6294972 3.46825767 C900.17893957 3.47736483 898.7283842 3.48683761 897.27783108 3.49663544 C895.73150167 3.49246375 894.18517617 3.48653939 892.63885942 3.47901797 C888.36859497 3.46337796 884.09869011 3.47279449 879.82843123 3.48612978 C875.19075121 3.49624234 870.55312794 3.4832506 865.91545588 3.47315645 C857.78041461 3.45867931 849.64547942 3.45916651 841.5104332 3.46934509 C829.41365358 3.48443967 817.3169639 3.47675856 805.22018494 3.46451186 C783.61897806 3.44341802 762.01781842 3.44528668 740.41660702 3.45682751 C721.51401084 3.46687738 702.611432 3.46952232 683.70883369 3.46473694 C682.4565004 3.4644314 681.20416711 3.46412586 679.91388433 3.46381106 C674.83066549 3.46256577 669.74744666 3.46129218 664.66422784 3.459972 C629.17471652 3.45086467 593.68521008 3.44927105 558.19570065 3.46422577 C557.19200898 3.46464726 557.19200898 3.46464726 556.16804072 3.46507727 C545.30129667 3.46965726 534.43455274 3.47453502 523.56780883 3.47943797 C480.46437871 3.498865 437.36099827 3.49796118 394.25756836 3.47851562 C383.39516422 3.47363102 372.53276007 3.46878689 361.6703558 3.46422577 C360.66715382 3.46380308 360.66715382 3.46380308 359.64368513 3.46337185 C323.55538781 3.44827046 287.46709259 3.45159151 251.37879378 3.46096468 C246.30497937 3.46224761 241.23116496 3.46349897 236.15735054 3.46473694 C234.9079847 3.46505325 233.65861886 3.46536956 232.37139345 3.46569545 C213.47665773 3.47025182 194.58194123 3.46491223 175.68720818 3.45481873 C154.211101 3.44340369 132.73504858 3.44619395 111.25894826 3.4679417 C99.22875765 3.47972107 87.19868551 3.48040448 75.16849787 3.465357 C67.14457296 3.45642455 59.12074355 3.46190209 51.09683285 3.47937608 C46.51724099 3.48894111 41.93788543 3.49204226 37.35830056 3.47775215 C33.19816365 3.46490251 29.0384743 3.47021504 24.8783705 3.49047479 C23.37697136 3.494528 21.87553578 3.49177502 20.3741653 3.48165104 C18.34531389 3.46893308 16.3163465 3.48301715 14.2875151 3.49860334 C13.16120585 3.49887438 12.0348966 3.49914542 10.87445676 3.49942467 C7.92760625 3.80500076 7.92760625 3.80500076 5.6383676 5.6383676 Z " fill="#FEFEFE" transform="translate(0,0)"/>
<path d="M0 0 C55.10218978 0 55.10218978 0 75.39453125 18.140625 C90.12834113 33.30113806 94.34078706 51.79690181 94.38085938 72.31225586 C94.23109005 82.06761131 92.90382615 91.15878411 88.8125 100.0625 C88.50352783 100.74513916 88.19455566 101.42777832 87.8762207 102.13110352 C80.46541002 118.0302165 69.24736657 128.03837816 52.83984375 134.18359375 C35.2641173 140.01369499 18.59546201 139 0 139 C0 93.13 0 47.26 0 0 Z " fill="#FEFEFE" transform="translate(218,330)"/>
<path d="M0 0 C3.5625 0.3125 3.5625 0.3125 5.15472412 1.5070343 C6.89750695 3.74214478 7.70089552 5.83922421 8.64941406 8.51245117 C9.03625366 9.58927658 9.42309326 10.66610199 9.82165527 11.77555847 C10.23629028 12.95692886 10.65092529 14.13829926 11.078125 15.35546875 C11.5261337 16.6121546 11.97492458 17.86856185 12.42443848 19.12471008 C13.39024096 21.82864344 14.35069397 24.53439521 15.30700684 27.24169922 C16.82043304 31.52606902 18.34525731 35.80632311 19.87207031 40.0859375 C21.73775757 45.31766837 23.60072734 50.55035115 25.46032333 55.78425026 C30.53528923 70.06613841 35.66382386 84.32871272 40.79431152 98.59072876 C42.05002574 102.08186971 43.30423219 105.57354982 44.55775452 109.06547832 C45.27183068 111.05464173 45.98615142 113.04371713 46.70056152 115.03276062 C47.56852119 117.44938768 48.43614139 119.86613671 49.30334473 122.28303528 C51.34909157 127.97554477 53.42088211 133.65533134 55.5625 139.3125 C57.94246132 136.93253868 58.50558747 135.09395737 59.62207031 131.92333984 C60.02298889 130.79390961 60.42390747 129.66447937 60.8369751 128.50082397 C61.26717957 127.27078644 61.69738403 126.0407489 62.140625 124.7734375 C62.59367543 123.49163959 63.04727756 122.21003655 63.50140381 120.92861938 C64.70085622 117.5400215 65.89368979 114.14913217 67.0848999 110.75762939 C68.97170659 105.3893866 70.86879937 100.02476733 72.76506042 94.6598587 C73.44956914 92.72100935 74.13196177 90.78142488 74.81408691 88.84173584 C76.67796689 83.55722918 78.54832858 78.28128463 80.57226562 73.05566406 C81.00270172 71.94404404 81.00270172 71.94404404 81.4418335 70.80996704 C82.1597887 68.9792504 82.89298793 67.15453014 83.62792969 65.33056641 C85.8953629 58.0082024 83.46560634 52.56689148 80.84375 45.69140625 C80.0689826 43.60092177 79.2942439 41.51042665 78.51953125 39.41992188 C77.29137071 36.14261554 76.05940038 32.86677127 74.82568359 29.59155273 C73.63480277 26.41992115 72.45760747 23.24344738 71.28125 20.06640625 C70.72346863 18.6067318 70.72346863 18.6067318 70.15441895 17.11756897 C68.25821012 11.98594963 66.8986685 7.7968183 67.5625 2.3125 C69.5625 0.3125 69.5625 0.3125 73 0 C76.5625 0.3125 76.5625 0.3125 78.1027832 1.36914062 C80.24092565 4.21570592 81.30270274 7.39556411 82.48046875 10.71875 C82.74257645 11.43985962 83.00468414 12.16096924 83.2747345 12.90393066 C83.82576935 14.42555126 84.37269403 15.94866576 84.91577148 17.47314453 C85.7482113 19.80748412 86.59469431 22.13636046 87.44335938 24.46484375 C87.97740023 25.94501052 88.51063113 27.42546982 89.04296875 28.90625 C89.29604294 29.6031897 89.54911713 30.30012939 89.80986023 31.01818848 C90.83884068 33.9224981 91.5625 36.20597362 91.5625 39.3125 C92.2225 39.3125 92.8825 39.3125 93.5625 39.3125 C93.8090332 38.34763672 93.8090332 38.34763672 94.06054688 37.36328125 C96.03215594 29.87223541 98.44320029 22.59985861 101.0625 15.3125 C101.45308594 14.19488281 101.84367188 13.07726562 102.24609375 11.92578125 C102.62894531 10.85714844 103.01179687 9.78851563 103.40625 8.6875 C103.74849609 7.72585938 104.09074219 6.76421875 104.44335938 5.7734375 C105.5642024 3.30875651 106.40042096 1.92408659 108.5625 0.3125 C112.125 0 112.125 0 115.5625 0.3125 C117.5625 2.3125 117.5625 2.3125 117.92211914 5.25390625 C117.7573729 10.56271923 115.66600664 15.3371378 113.80859375 20.25 C113.02910677 22.38274303 112.24981585 24.51555772 111.47070312 26.6484375 C110.23550514 29.98787382 108.99521286 33.3253268 107.75024414 36.66113281 C106.54812954 39.89439015 105.365089 43.13416215 104.18359375 46.375 C103.80657822 47.36685303 103.42956268 48.35870605 103.04112244 49.38061523 C99.22085488 59.90537975 102.3557014 67.14078233 106.04296875 77.33984375 C106.49853481 78.61410927 106.95354643 79.88857314 107.40803528 81.16322327 C108.60482413 84.51453378 109.80974425 87.86286572 111.01623535 91.21069336 C111.98409184 93.90059696 112.94615167 96.59255481 113.9079113 99.28464317 C118.68861928 112.6659562 123.49582681 126.03619767 128.5625 139.3125 C131.14582368 136.72917632 131.71334976 134.4219462 132.8984375 130.95703125 C133.1293811 130.28921631 133.36032471 129.62140137 133.5982666 128.93334961 C134.10927182 127.45534468 134.61787662 125.97650829 135.12445068 124.49697876 C136.55766918 120.31572707 138.01283279 116.1421427 139.46875 111.96875 C139.7875412 111.05446732 140.1063324 110.14018463 140.43478394 109.19819641 C145.06947012 95.95040219 149.9112094 82.77685338 154.72744751 69.5942688 C159.23047852 57.2677663 163.7165969 44.9373764 168.07421875 32.55859375 C168.59728607 31.07641106 168.59728607 31.07641106 169.13092041 29.56428528 C170.75845064 24.95113739 172.37766857 20.33540122 173.98193359 15.71411133 C174.55139505 14.09573819 175.12119772 12.47748507 175.69140625 10.859375 C175.9404924 10.13088852 176.18957855 9.40240204 176.44621277 8.65184021 C178.72376339 2.24002057 178.72376339 2.24002057 181.5625 0.3125 C185.125 0 185.125 0 188.5625 0.3125 C190.5625 2.3125 190.5625 2.3125 190.91040039 5.26977539 C190.74502361 10.47952069 188.78553229 15.1568164 186.99609375 19.99609375 C186.61474274 21.05508377 186.23339172 22.11407379 185.84048462 23.20515442 C184.5706429 26.72393271 183.28526921 30.23683052 182 33.75 C181.10037621 36.23430918 180.20169668 38.71893755 179.30444336 41.20410156 C177.64041765 45.80954449 175.97233271 50.41348182 174.29934406 55.0156765 C171.03400261 63.99856574 167.79663879 72.99131317 164.5703125 81.98828125 C164.32350298 82.67650278 164.07669346 83.36472431 163.82240486 84.07380104 C163.57591131 84.76115522 163.32941776 85.44850941 163.07545471 86.1566925 C162.57870652 87.54188089 162.08195664 88.92706868 161.58520508 90.31225586 C161.34024072 90.99540391 161.09527636 91.67855196 160.84288883 92.38240147 C159.12767101 97.16453693 157.40821868 101.94513452 155.6862793 106.72485352 C155.44767024 107.38724376 155.20906118 108.049634 154.96322155 108.73209667 C154.72661469 109.38892594 154.49000784 110.04575521 154.24623108 110.7224884 C153.77482401 112.03113553 153.303424 113.33978521 152.83203125 114.6484375 C152.60197828 115.28707418 152.37192532 115.92571087 152.13490105 116.58370018 C149.50496284 123.88657017 146.8887724 131.19392686 144.3044281 138.51306152 C143.08416577 141.96890433 141.85754562 145.4224721 140.63034058 148.87585449 C139.83885299 151.11301265 139.05805574 153.35370566 138.27758789 155.59472656 C137.81586696 156.89409358 137.35358968 158.19326311 136.890625 159.4921875 C136.5080957 160.58257324 136.12556641 161.67295898 135.73144531 162.79638672 C134.5625 165.3125 134.5625 165.3125 131.5625 167.3125 C128.1875 167.6875 128.1875 167.6875 124.5625 166.3125 C123.27830505 164.00531006 123.27830505 164.00531006 122.12670898 161.03027344 C121.70098602 159.94178101 121.27526306 158.85328857 120.8366394 157.73181152 C120.4161734 156.60343872 119.9957074 155.47506592 119.5625 154.3125 C119.17708038 153.27919556 118.79166077 152.24589111 118.39456177 151.18127441 C117.21117568 147.94598698 116.05693379 144.70156123 114.91015625 141.453125 C114.48754013 140.26507263 114.06492401 139.07702026 113.62950134 137.85296631 C112.51662384 134.72332807 111.40636365 131.59279023 110.29766846 128.46166992 C108.31856243 122.87398612 106.33314806 117.28854224 104.34765625 111.703125 C103.92932526 110.52391479 103.51099426 109.34470459 103.07998657 108.12976074 C100.33525667 100.41365697 97.49644997 92.74241907 94.52124023 85.11230469 C93.5625 82.3125 93.5625 82.3125 93.5625 79.3125 C92.9025 79.3125 92.2425 79.3125 91.5625 79.3125 C91.43032074 80.03905289 91.29814148 80.76560577 91.16195679 81.51417542 C90.59913138 84.14150102 89.86585055 86.55489189 88.97119141 89.08569336 C88.64603043 90.01050507 88.32086945 90.93531677 87.9858551 91.88815308 C87.63216354 92.882836 87.27847198 93.87751892 86.9140625 94.90234375 C86.54534531 95.94746124 86.17662811 96.99257874 85.79673767 98.06936646 C84.59757354 101.46431123 83.3930434 104.85731567 82.1875 108.25 C81.78054901 109.39733612 81.37359802 110.54467224 80.95431519 111.72677612 C78.52815117 118.56646769 76.094583 125.40349095 73.65704346 132.23913574 C72.66272075 135.03109055 71.67192574 137.8242567 70.68310547 140.61816406 C69.39988811 144.24284334 68.10753946 147.86407405 66.80462646 151.48171997 C66.13838667 153.33770788 65.48144854 155.19702638 64.82470703 157.05639648 C64.43009277 158.14251221 64.03547852 159.22862793 63.62890625 160.34765625 C63.29834229 161.2694165 62.96777832 162.19117676 62.62719727 163.14086914 C61.5625 165.3125 61.5625 165.3125 58.5625 167.3125 C54.875 166.9375 54.875 166.9375 51.5625 166.3125 C46.41820757 153.35665657 41.62133183 140.293115 36.94342041 127.162323 C35.29179287 122.52635407 33.63453506 117.8924033 31.97772217 113.25828552 C31.1181051 110.85373367 30.25877214 108.44908024 29.39971924 106.04432678 C25.38972809 94.82055454 21.35763089 83.60480586 17.31845093 72.39151001 C16.1950143 69.27087291 15.07348049 66.14955773 13.95239258 63.02807617 C10.83779329 54.36163746 7.71574308 45.6987979 4.52053833 37.06169128 C3.27605195 33.69759946 2.03872822 30.33089115 0.80145264 26.96414185 C-0.03477652 24.70006099 -0.88304825 22.44075548 -1.73193359 20.18139648 C-2.23077255 18.82558945 -2.72902033 17.4695647 -3.2265625 16.11328125 C-3.65662598 14.95997314 -4.08668945 13.80666504 -4.52978516 12.6184082 C-5.52252056 9.0028541 -5.74444844 6.04457162 -5.4375 2.3125 C-3.4375 0.3125 -3.4375 0.3125 0 0 Z " fill="#1E1E1C" transform="translate(524.4375,314.6875)"/>
<path d="M0 0 C2.15977138 1.57285744 2.15977138 1.57285744 4 4 C4.50254732 7.28027338 4.50254732 7.28027338 4.50615788 11.27178097 C4.51227123 12.00934092 4.51838459 12.74690086 4.52468321 13.50681111 C4.54035298 15.99207928 4.52738952 18.47638126 4.5146637 20.96165466 C4.5199859 22.7558374 4.5270497 24.55001568 4.53571075 26.34418541 C4.55440828 31.28527471 4.54800871 36.22606575 4.53755772 41.16716778 C4.53058581 46.49174146 4.54654834 51.81625262 4.55955505 57.14080811 C4.58123413 67.57615601 4.58105814 78.01139504 4.57292951 88.44675808 C4.56663801 96.9258459 4.56775872 105.40490187 4.57420158 113.88398933 C4.57510324 115.0892859 4.57600489 116.29458246 4.57693387 117.53640317 C4.57878501 119.98470339 4.58064757 122.43300359 4.58252143 124.88130379 C4.59911355 147.85772268 4.59036873 170.83408023 4.57353585 193.81049544 C4.558838 214.84576088 4.57346606 235.8808835 4.60230602 256.91613054 C4.63167634 278.49840377 4.64267918 300.08061102 4.63312382 321.66290337 C4.63210123 324.1026672 4.63110662 326.54243105 4.6301403 328.9821949 C4.62966391 330.18269936 4.62918752 331.38320381 4.6286967 332.62008719 C4.62652942 341.09121158 4.63635332 349.56227374 4.65091133 358.03338432 C4.66839949 368.35378772 4.66836794 378.67400896 4.64555968 388.99440508 C4.63438543 394.26288215 4.63132685 399.5310379 4.64986038 404.79950142 C4.66659652 409.61893577 4.66040773 414.43776685 4.63564359 419.25716162 C4.63073723 421.00408851 4.63433834 422.75106343 4.64713103 424.49795037 C4.66323177 426.8668272 4.64874586 429.23359739 4.62641239 431.60237789 C4.6261427 432.91973775 4.62587301 434.23709761 4.62559515 435.59437746 C3.84205542 439.85982064 2.38252362 441.36920389 -1 444 C-3.625 444.0625 -3.625 444.0625 -6 443 C-8.88353433 440.14175023 -9.3512595 437.80080769 -9.39880675 433.79225448 C-9.39178325 433.10412546 -9.38475975 432.41599645 -9.37752342 431.70701504 C-9.38406391 430.59724377 -9.38406391 430.59724377 -9.39073652 429.46505287 C-9.4017332 426.972159 -9.39125048 424.47981356 -9.38095093 421.98692322 C-9.38440575 420.18719322 -9.38916912 418.38746534 -9.39513266 416.58774191 C-9.40769638 411.63142773 -9.40144794 406.67528607 -9.39217401 401.71897113 C-9.38540583 396.37809044 -9.3958536 391.03724009 -9.40411377 385.69636536 C-9.41747693 375.2296146 -9.41456196 364.76292825 -9.40587585 354.29617494 C-9.39911022 345.79276177 -9.39817772 337.2893667 -9.4014473 328.78595161 C-9.401907 327.57730224 -9.40236669 326.36865287 -9.40284032 325.12337776 C-9.40379946 322.66830908 -9.4047721 320.21324041 -9.4057581 317.75817174 C-9.41431946 294.71934827 -9.40446596 271.68056056 -9.388357 248.64174295 C-9.37495145 228.85644028 -9.37728243 209.0711904 -9.39111328 189.28588867 C-9.40715299 166.32990113 -9.41349721 143.37394496 -9.40427649 120.4179526 C-9.4033208 117.97204594 -9.40237769 115.52613928 -9.4014473 113.08023262 C-9.40098447 111.87668263 -9.40052164 110.67313264 -9.40004479 109.43311144 C-9.3974502 100.93551715 -9.40183596 92.4379427 -9.40888596 83.94035149 C-9.41728322 73.59101639 -9.4150582 63.2417496 -9.39904372 52.89242237 C-9.39113732 47.60806434 -9.3881096 42.32382034 -9.39799118 37.03946304 C-9.40688964 32.20793129 -9.40208586 27.37661996 -9.38605852 22.54510839 C-9.38269006 20.79148719 -9.38445069 19.0378476 -9.39168589 17.28423809 C-9.4007289 14.91160366 -9.39153392 12.53973723 -9.37752342 10.16714382 C-9.38454692 9.47667364 -9.39157042 8.78620346 -9.39880675 8.07480994 C-9.36535705 5.26592465 -9.29190875 3.41838816 -7.65999854 1.07939726 C-5.00559423 -0.6466023 -3.07953702 -0.43993386 0 0 Z " fill="#232321" transform="translate(439,170)"/>
<path d="M0 0 C25.93354593 -0.7672076 54.63259991 -0.76200051 75.46630859 17.29931641 C76.10697266 17.90388672 76.74763672 18.50845703 77.40771484 19.13134766 C78.53886719 20.14648438 78.53886719 20.14648438 79.69287109 21.18212891 C94.17171356 34.79079053 102.91188683 55.30025088 103.64599609 75.11572266 C104.1334956 100.13054126 98.61118904 122.28455653 81.40771484 141.13134766 C70.35661751 152.18244499 54.62170435 159.27743436 39.23974609 161.78759766 C38.47104691 161.91332153 37.70234772 162.03904541 36.91035461 162.1685791 C28.23148821 163.46847779 19.57014993 163.65460719 10.80737305 163.63232422 C8.05140761 163.63133188 5.29806074 163.67358047 2.54248047 163.71728516 C0.77230388 163.72248019 -0.9978822 163.72518055 -2.76806641 163.72509766 C-3.58261795 163.74149292 -4.39716949 163.75788818 -5.23640442 163.77478027 C-5.99877914 163.76547485 -6.76115387 163.75616943 -7.54663086 163.74658203 C-8.20959671 163.74863647 -8.87256256 163.75069092 -9.55561829 163.75280762 C-12.84918768 162.74782171 -14.40302077 160.72735131 -16.59228516 158.13134766 C-17.21869755 155.13782406 -17.21869755 155.13782406 -17.22047424 151.7485199 C-17.2331282 150.46006165 -17.24578217 149.17160339 -17.25881958 147.84410095 C-17.24750425 146.4234884 -17.23567681 145.00287986 -17.22338867 143.58227539 C-17.22852878 142.08064936 -17.23581076 140.57902937 -17.24507141 139.0774231 C-17.2635808 135.00503901 -17.25065086 130.93330989 -17.23098111 126.86095309 C-17.21459228 122.59870568 -17.22340769 118.33649967 -17.22850037 114.07423401 C-17.23302058 106.91779113 -17.21715485 99.76160968 -17.18920898 92.60522461 C-17.15714505 84.33045562 -17.15717771 76.05615782 -17.17442375 67.78135532 C-17.1902838 59.8208471 -17.18355948 51.86051171 -17.16648674 43.90001106 C-17.15961269 40.51209986 -17.16065224 37.12432704 -17.16803169 33.73641777 C-17.17568939 29.74797985 -17.16358592 25.76007869 -17.13618279 21.77173233 C-17.12929281 20.30760987 -17.12920759 18.84343734 -17.13639832 17.37931633 C-17.14507816 15.38193621 -17.12671691 13.38449292 -17.10694885 11.38719177 C-17.10414193 10.26909842 -17.10133501 9.15100508 -17.09844303 7.99903011 C-16.47178521 4.44864449 -15.44698586 3.27746158 -12.59228516 1.13134766 C-8.3482068 0.30030823 -4.31615569 0.15781513 0 0 Z M-3.59228516 12.13134766 C-3.59228516 58.00134766 -3.59228516 103.87134766 -3.59228516 151.13134766 C37.56526512 151.53873429 37.56526512 151.53873429 72.59521484 132.56884766 C87.4546041 116.76552178 90.95471313 96.10757497 90.67724609 75.23291016 C90.14993879 58.38505226 83.60388793 42.41539969 71.80224609 30.27197266 C50.43819189 11.17327493 23.81428245 12.13134766 -3.59228516 12.13134766 Z " fill="#20201E" transform="translate(221.59228515625,317.86865234375)"/>
<path d="M0 0 C0.78656982 -0.01144043 1.57313965 -0.02288086 2.38354492 -0.03466797 C3.21732666 -0.0245166 4.0511084 -0.01436523 4.91015625 -0.00390625 C5.76391846 0.00366699 6.61768066 0.01124023 7.49731445 0.01904297 C18.05125648 0.2921874 27.24304115 2.97361638 34.97265625 10.43359375 C41.94282873 17.85992935 43.60436661 27.20544163 43.3125 37.12890625 C42.28334916 47.13651098 38.64587484 54.85055922 30.97265625 61.43359375 C28.40149633 63.15259781 25.88811594 64.41238918 22.97265625 65.43359375 C21.95945312 65.789375 20.94625 66.14515625 19.90234375 66.51171875 C15.04633445 67.86280413 10.16700184 67.76337065 5.16015625 67.74609375 C4.20689453 67.76220703 3.25363281 67.77832031 2.27148438 67.79492188 C1.36205078 67.79556641 0.45261719 67.79621094 -0.484375 67.796875 C-1.3091333 67.79985596 -2.1338916 67.80283691 -2.98364258 67.8059082 C-3.99527466 67.62161255 -3.99527466 67.62161255 -5.02734375 67.43359375 C-7.33683292 63.96936 -7.28437172 62.62753094 -7.30200195 58.54101562 C-7.31153397 57.32965942 -7.32106598 56.11830322 -7.33088684 54.87023926 C-7.32997543 53.56083374 -7.32906403 52.25142822 -7.328125 50.90234375 C-7.33201205 49.54618193 -7.33634674 48.19002133 -7.34111023 46.8338623 C-7.34856999 43.99255423 -7.34828268 41.15137043 -7.34301758 38.31005859 C-7.33721845 34.66810463 -7.35416513 31.02665849 -7.37736225 27.38478851 C-7.39208887 24.58466618 -7.39297288 21.78466652 -7.38985252 18.98451233 C-7.3906159 16.98863488 -7.4044956 14.99277647 -7.41853333 12.99694824 C-7.41230453 11.78559204 -7.40607574 10.57423584 -7.3996582 9.32617188 C-7.40028763 8.25822388 -7.40091705 7.19027588 -7.40156555 6.08996582 C-7.02734375 3.43359375 -7.02734375 3.43359375 -5.62246704 1.59056091 C-3.62603589 0.14251906 -2.45357514 0.03397992 0 0 Z " fill="#F8F8F8" transform="translate(86.02734375,679.56640625)"/>
<path d="M0 0 C3.20703125 1.21875 3.20703125 1.21875 4.39697266 3.15234375 C5.56433071 5.97531674 6.55962639 8.81854485 7.51953125 11.71875 C7.89198975 12.77707031 8.26444824 13.83539062 8.64819336 14.92578125 C9.43998416 17.17886871 10.22166405 19.43553027 10.99414062 21.6953125 C12.62458985 26.43175436 14.33571704 31.13749703 16.0456543 35.84570312 C17.78197236 40.63105527 19.49541676 45.4245172 21.20703125 50.21875 C23.79810016 46.33214663 25.21200312 42.26913063 26.83203125 37.90625 C27.156875 37.06384766 27.48171875 36.22144531 27.81640625 35.35351562 C31.24246462 26.14778317 29.97285974 20.8216981 26.25195312 12.05273438 C24.63396572 8.04393264 23.78499048 5.38736096 25.20703125 1.21875 C27.51953125 0.53125 27.51953125 0.53125 30.20703125 0.21875 C32.81091312 2.24977786 33.83382992 4.32516519 34.89453125 7.40625 C35.14589844 8.12167969 35.39726563 8.83710937 35.65625 9.57421875 C35.83800781 10.11691406 36.01976562 10.65960937 36.20703125 11.21875 C36.43777344 10.50847656 36.66851563 9.79820312 36.90625 9.06640625 C37.23238281 8.14730469 37.55851563 7.22820313 37.89453125 6.28125 C38.20777344 5.36472656 38.52101563 4.44820312 38.84375 3.50390625 C40.20703125 1.21875 40.20703125 1.21875 42.7265625 0.33984375 C45.20703125 0.21875 45.20703125 0.21875 47.20703125 1.21875 C46.7915692 7.55454629 45.51611187 12.59295749 43.046875 18.4453125 C40.66769884 26.30212681 43.49824589 32.78487631 46.20703125 40.15625 C46.779375 41.75436523 46.779375 41.75436523 47.36328125 43.38476562 C48.30141243 45.9998063 49.24952491 48.61075485 50.20703125 51.21875 C51.52272628 47.74078375 52.83435432 44.2612986 54.14453125 40.78125 C54.54551025 39.71696777 54.94648926 38.65268555 55.35961914 37.55615234 C57.53312804 31.76323261 59.66814434 25.95963065 61.73828125 20.12890625 C62.14183838 18.99316162 62.54539551 17.85741699 62.96118164 16.68725586 C63.7413945 14.48279639 64.51673869 12.27660686 65.28686523 10.06860352 C65.64079346 9.06885498 65.99472168 8.06910645 66.359375 7.0390625 C66.66866943 6.15492676 66.97796387 5.27079102 67.29663086 4.35986328 C68.20703125 2.21875 68.20703125 2.21875 70.20703125 0.21875 C74.76258681 0.77430556 74.76258681 0.77430556 76.20703125 2.21875 C75.77452441 7.9110228 74.54415845 12.77913154 72.546875 18.1015625 C72.28107132 18.8307338 72.01526764 19.55990509 71.7414093 20.31117249 C70.88373198 22.65836952 70.01436996 25.00103591 69.14453125 27.34375 C68.55163888 28.95845772 67.95952025 30.57344975 67.36816406 32.1887207 C66.19648912 35.38623333 65.02060107 38.5821449 63.84130859 41.77685547 C62.4101381 45.65875861 61.00054446 49.54778688 59.6015625 53.44140625 C59.23232666 54.4679834 58.86309082 55.49456055 58.48266602 56.55224609 C57.81403196 58.41283454 57.14649783 60.27381874 56.48022461 62.13525391 C54.31955882 68.10622243 54.31955882 68.10622243 53.20703125 69.21875 C50.83203125 69.59375 50.83203125 69.59375 48.20703125 69.21875 C45.77920022 65.78895696 44.34098144 62.20600054 42.9453125 58.26171875 C42.54892578 57.14990234 42.15253906 56.03808594 41.74414062 54.89257812 C41.34001953 53.74208984 40.93589844 52.59160156 40.51953125 51.40625 C40.10380859 50.23642578 39.68808594 49.06660156 39.25976562 47.86132812 C38.2373599 44.98213959 37.21996693 42.10128097 36.20703125 39.21875 C35.95010498 39.91436035 35.69317871 40.6099707 35.4284668 41.32666016 C34.25400057 44.50033594 33.07431663 47.67204792 31.89453125 50.84375 C31.49041016 51.93816406 31.08628906 53.03257812 30.66992188 54.16015625 C28.74527504 59.32384287 26.83545013 64.37021033 24.20703125 69.21875 C22.55703125 69.21875 20.90703125 69.21875 19.20703125 69.21875 C15.93813239 63.03443304 13.49077343 56.78750657 11.203125 50.18359375 C10.83856705 49.14610489 10.47400909 48.10861603 10.09840393 47.03968811 C8.94213147 43.74692925 7.79288836 40.45177682 6.64453125 37.15625 C5.491602 33.85751766 4.33712967 30.55934291 3.1799469 27.26210022 C2.46267369 25.21734162 1.74796979 23.17167933 1.03623962 21.12498474 C-0.37561097 17.09222773 -1.79727204 13.11514237 -3.55053711 9.21704102 C-4.90776297 5.94172352 -4.95877954 4.52188058 -3.79296875 1.21875 C-2.79296875 0.21875 -2.79296875 0.21875 0 0 Z " fill="#20201E" transform="translate(534.79296875,678.78125)"/>
<path d="M0 0 C11.03982606 0.02475045 22.48369253 0.56418417 30.7824707 8.82177734 C34.5111438 13.28946673 35.66322805 17.36209936 35.52856445 23.07568359 C34.86929246 26.4877053 33.0476202 28.79529439 31.0715332 31.59521484 C29.78502586 33.46511923 29.78502586 33.46511923 30.64575195 36.19287109 C31.78494221 37.92642148 32.93260646 39.65440286 34.08325195 41.38037109 C34.31030273 43.55688477 34.31030273 43.55688477 34.27856445 46.04833984 C34.27211914 46.94101562 34.26567383 47.83369141 34.2590332 48.75341797 C34.24227539 49.6821875 34.22551758 50.61095703 34.20825195 51.56787109 C34.19922852 52.50824219 34.19020508 53.44861328 34.1809082 54.41748047 C34.15734251 56.73870077 34.12444312 59.05940753 34.08325195 61.38037109 C34.88762695 61.35974609 35.69200195 61.33912109 36.52075195 61.31787109 C39.08325195 61.38037109 39.08325195 61.38037109 40.08325195 62.38037109 C40.12405978 64.37995473 40.12579552 66.38082363 40.08325195 68.38037109 C36.94924311 69.94737552 33.451701 70.2320167 30.08325195 69.38037109 C27.46947037 67.1976342 26.24082469 65.45065535 25.73999023 62.04882812 C25.60859986 59.27940527 25.57192023 56.52786706 25.58325195 53.75537109 C25.59090615 51.86733704 25.58124992 49.97913161 25.55200195 48.09130859 C25.55651367 47.25905762 25.56102539 46.42680664 25.56567383 45.56933594 C25.25433414 43.24674187 25.25433414 43.24674187 23.36547852 41.60424805 C20.70491132 40.17748046 19.10234744 40.03246081 16.09887695 40.08740234 C15.16430664 40.09707031 14.22973633 40.10673828 13.2668457 40.11669922 C11.8147168 40.1544043 11.8147168 40.1544043 10.33325195 40.19287109 C8.85791992 40.21317383 8.85791992 40.21317383 7.3527832 40.23388672 C4.92904781 40.26918384 2.5064305 40.31849055 0.08325195 40.38037109 C0.09372559 41.15751465 0.10419922 41.9346582 0.11499023 42.73535156 C0.15645478 46.2419921 0.18254773 49.74858115 0.20825195 53.25537109 C0.22500977 54.47869141 0.24176758 55.70201172 0.2590332 56.96240234 C0.26547852 58.12900391 0.27192383 59.29560547 0.27856445 60.49755859 C0.2942749 62.11573486 0.2942749 62.11573486 0.31030273 63.76660156 C0.08325195 66.38037109 0.08325195 66.38037109 -1.91674805 68.38037109 C-6.4723036 67.82481554 -6.4723036 67.82481554 -7.91674805 66.38037109 C-8.02130625 64.3969391 -8.05530409 62.40975868 -8.06201172 60.42358398 C-8.06839157 59.14878677 -8.07477142 57.87398956 -8.0813446 56.56056213 C-8.08287316 55.15805092 -8.08398719 53.7555392 -8.0847168 52.35302734 C-8.0879277 50.92435166 -8.09129164 49.49567632 -8.09480286 48.06700134 C-8.10080043 45.06834145 -8.10264212 42.0697104 -8.10205078 39.07104492 C-8.10194913 35.2227916 -8.11560102 31.37472269 -8.13282299 27.5265131 C-8.14392511 24.57461187 -8.14597054 21.62275547 -8.14544106 18.67083549 C-8.14662389 17.25181887 -8.15106259 15.83280118 -8.15877342 14.41380501 C-8.16853659 12.4314116 -8.16444057 10.44896444 -8.15966797 8.46655273 C-8.16109299 7.33705704 -8.16251801 6.20756134 -8.16398621 5.0438385 C-7.67376519 -0.23725448 -4.61907481 0.09158641 0 0 Z " fill="#1F1F1D" transform="translate(378.916748046875,678.61962890625)"/>
<path d="M0 0 C2.46708679 0.10102844 2.46708679 0.10102844 5 1 C6.42121887 2.90324402 6.42121887 2.90324402 7.52661133 5.38354492 C7.93980621 6.29180023 8.3530011 7.20005554 8.77871704 8.13583374 C9.18174042 9.08100861 9.58476379 10.02618347 10 11 C10.37990082 11.87161774 10.75980164 12.74323547 11.1512146 13.64126587 C12.319719 16.37129322 13.45127708 19.11421566 14.57421875 21.86328125 C15.1890789 23.35579659 15.1890789 23.35579659 15.81636047 24.87846375 C17.11026641 28.02170623 18.39894061 31.16706251 19.6875 34.3125 C20.56281116 36.44089502 21.4384593 38.56915149 22.31445312 40.69726562 C27.06657415 52.250013 27.06657415 52.250013 29 57 C29.37417557 57.87540939 29.74835114 58.75081879 30.13386536 59.65275574 C31.11882813 62.32202689 31.07558686 63.40066508 30 66 C29.34 66.66 28.68 67.32 28 68 C26.07421875 67.9921875 26.07421875 67.9921875 24 67 C22.33203125 64.3828125 22.33203125 64.3828125 20.8125 61.125 C20.30332031 60.05507813 19.79414062 58.98515625 19.26953125 57.8828125 C18 55 18 55 17 52 C7.1 52 -2.8 52 -13 52 C-14.88992664 56.51508503 -14.88992664 56.51508503 -16.76904297 61.03466797 C-17.93904246 63.79732037 -18.8598408 65.8598408 -21 68 C-23.93453261 67.63318342 -24.86437246 67.13562754 -27 65 C-26.66904697 59.84879069 -24.7020961 55.44535484 -22.68359375 50.76953125 C-22.34884537 49.97963303 -22.01409698 49.1897348 -21.66920471 48.37590027 C-20.59806439 45.8521229 -19.51802427 43.33227195 -18.4375 40.8125 C-17.73832642 39.17017968 -17.03975372 37.52760341 -16.34179688 35.88476562 C-15.29490951 33.4212984 -14.24670007 30.95844822 -13.19369507 28.49758911 C-11.35783197 24.20645581 -9.54209811 19.9082814 -7.75830078 15.59521484 C-7.39575699 14.72193039 -7.0332132 13.84864594 -6.65968323 12.94889832 C-5.96607936 11.27555319 -5.27639697 9.60057571 -4.59117126 7.92378235 C-4.28014969 7.17509384 -3.96912811 6.42640533 -3.64868164 5.6550293 C-3.37770157 4.99560837 -3.1067215 4.33618744 -2.82752991 3.65678406 C-2 2 -2 2 0 0 Z " fill="#222220" transform="translate(661,680)"/>
<path d="M0 0 C0.78656982 -0.01144043 1.57313965 -0.02288086 2.38354492 -0.03466797 C3.21732666 -0.0245166 4.0511084 -0.01436523 4.91015625 -0.00390625 C5.76391846 0.00366699 6.61768066 0.01124023 7.49731445 0.01904297 C18.05125648 0.2921874 27.24304115 2.97361638 34.97265625 10.43359375 C41.94282873 17.85992935 43.60436661 27.20544163 43.3125 37.12890625 C42.28334916 47.13651098 38.64587484 54.85055922 30.97265625 61.43359375 C28.40149633 63.15259781 25.88811594 64.41238918 22.97265625 65.43359375 C21.95945312 65.789375 20.94625 66.14515625 19.90234375 66.51171875 C15.04633445 67.86280413 10.16700184 67.76337065 5.16015625 67.74609375 C4.20689453 67.76220703 3.25363281 67.77832031 2.27148438 67.79492188 C1.36205078 67.79556641 0.45261719 67.79621094 -0.484375 67.796875 C-1.3091333 67.79985596 -2.1338916 67.80283691 -2.98364258 67.8059082 C-3.99527466 67.62161255 -3.99527466 67.62161255 -5.02734375 67.43359375 C-7.33683292 63.96936 -7.28437172 62.62753094 -7.30200195 58.54101562 C-7.31153397 57.32965942 -7.32106598 56.11830322 -7.33088684 54.87023926 C-7.32997543 53.56083374 -7.32906403 52.25142822 -7.328125 50.90234375 C-7.33201205 49.54618193 -7.33634674 48.19002133 -7.34111023 46.8338623 C-7.34856999 43.99255423 -7.34828268 41.15137043 -7.34301758 38.31005859 C-7.33721845 34.66810463 -7.35416513 31.02665849 -7.37736225 27.38478851 C-7.39208887 24.58466618 -7.39297288 21.78466652 -7.38985252 18.98451233 C-7.3906159 16.98863488 -7.4044956 14.99277647 -7.41853333 12.99694824 C-7.41230453 11.78559204 -7.40607574 10.57423584 -7.3996582 9.32617188 C-7.40028763 8.25822388 -7.40091705 7.19027588 -7.40156555 6.08996582 C-7.02734375 3.43359375 -7.02734375 3.43359375 -5.62246704 1.59056091 C-3.62603589 0.14251906 -2.45357514 0.03397992 0 0 Z M0.97265625 8.43359375 C0.97265625 25.26359375 0.97265625 42.09359375 0.97265625 59.43359375 C15.78981292 59.67155356 15.78981292 59.67155356 27.84765625 53.18359375 C33.70828212 45.59925438 35.92885469 37.96825817 34.97265625 28.43359375 C33.49205572 22.3506446 31.14498176 17.48127158 26.07421875 13.68359375 C17.37067639 8.50676558 11.53483575 8.43359375 0.97265625 8.43359375 Z " fill="#1E1E1C" transform="translate(86.02734375,679.56640625)"/>
<path d="M0 0 C1.12347839 0.00607269 1.12347839 0.00607269 2.26965332 0.01226807 C3.03894165 0.01035461 3.80822998 0.00844116 4.60083008 0.00646973 C6.22823412 0.00510799 7.85564902 0.00880368 9.48303223 0.01715088 C11.97855963 0.02785086 14.47336714 0.01725555 16.96887207 0.00445557 C18.54830075 0.00577716 20.12772898 0.00833956 21.70715332 0.01226807 C22.45613892 0.0082196 23.20512451 0.00417114 23.97680664 0 C29.25848089 0.04797064 29.25848089 0.04797064 31.48840332 2.27789307 C30.93284776 6.83344862 30.93284776 6.83344862 29.48840332 8.27789307 C27.34281505 8.36564912 25.19435911 8.38484526 23.04699707 8.37554932 C21.74182129 8.37232666 20.43664551 8.369104 19.09191895 8.36578369 C17.70324642 8.35742708 16.31457455 8.34896212 14.92590332 8.34039307 C13.53332676 8.33537973 12.14074851 8.33081653 10.74816895 8.32672119 C7.32822881 8.31488749 3.90831082 8.29695137 0.48840332 8.27789307 C0.48840332 15.53789307 0.48840332 22.79789307 0.48840332 30.27789307 C3.28631348 30.26049072 3.28631348 30.26049072 6.14074707 30.24273682 C8.56913149 30.23336081 10.99751699 30.22426041 13.42590332 30.21539307 C15.27345215 30.20282471 15.27345215 30.20282471 17.1583252 30.19000244 C18.32814941 30.18677979 19.49797363 30.18355713 20.70324707 30.18023682 C22.32927856 30.17238159 22.32927856 30.17238159 23.98815918 30.16436768 C26.48840332 30.27789307 26.48840332 30.27789307 27.48840332 31.27789307 C27.67590332 33.71539307 27.67590332 33.71539307 27.48840332 36.27789307 C25.48840332 38.27789307 25.48840332 38.27789307 22.96643066 38.50494385 C21.92954102 38.49447021 20.89265137 38.48399658 19.82434082 38.47320557 C18.70285645 38.46676025 17.58137207 38.46031494 16.42590332 38.45367432 C15.25027832 38.4369165 14.07465332 38.42015869 12.86340332 38.40289307 C11.68004395 38.39386963 10.49668457 38.38484619 9.27746582 38.37554932 C6.34769275 38.35192211 3.41802318 38.3160502 0.48840332 38.27789307 C0.48840332 45.53789307 0.48840332 52.79789307 0.48840332 60.27789307 C2.5586377 60.25468994 4.62887207 60.23148682 6.76184082 60.20758057 C8.76411459 60.19367589 10.76638955 60.1798413 12.76867676 60.16802979 C14.16161113 60.15796429 15.55452434 60.14431073 16.9473877 60.12701416 C18.94794692 60.10279086 20.94865947 60.09248493 22.94934082 60.08258057 C24.75604248 60.06687012 24.75604248 60.06687012 26.59924316 60.05084229 C29.48840332 60.27789307 29.48840332 60.27789307 31.48840332 62.27789307 C31.23840332 64.84039307 31.23840332 64.84039307 30.48840332 67.27789307 C27.44312113 68.80053416 24.26695086 68.44074844 20.92590332 68.44586182 C20.17881104 68.44919022 19.43171875 68.45251862 18.6619873 68.45594788 C17.08167131 68.46101273 15.50134461 68.46335634 13.92102051 68.4631958 C11.49799089 68.46538441 9.07541496 68.48355008 6.65246582 68.50250244 C5.11861322 68.50543598 3.58475844 68.50742104 2.05090332 68.50836182 C1.3237915 68.51554733 0.59667969 68.52273285 -0.15246582 68.53013611 C-5.28276865 68.50672109 -5.28276865 68.50672109 -7.51159668 66.27789307 C-7.76556396 63.62115479 -7.76556396 63.62115479 -7.77038574 60.20758057 C-7.77669006 58.93285889 -7.78299438 57.65813721 -7.78948975 56.3447876 C-7.78591007 54.94748802 -7.78180814 53.5501897 -7.77722168 52.15289307 C-7.77856839 50.7256463 -7.78050897 49.29839998 -7.78302002 47.87115479 C-7.78597102 44.87843462 -7.7816745 41.88583375 -7.77233887 38.89312744 C-7.76094423 35.05272933 -7.76750385 31.21261075 -7.7794838 27.3722229 C-7.78670311 24.42460007 -7.78441416 21.47704375 -7.77922821 18.52941895 C-7.77789191 17.11319954 -7.77953877 15.69697413 -7.78418732 14.28076172 C-7.78925343 12.30324414 -7.78016576 10.32570545 -7.77038574 8.34820557 C-7.76879456 7.22172607 -7.76720337 6.09524658 -7.76556396 4.93463135 C-7.27496151 -0.19753485 -4.51225061 0.04098237 0 0 Z " fill="#1D1D1B" transform="translate(810.5115966796875,679.7221069335938)"/>
<path d="M0 0 C0.79289932 -0.0033284 1.58579865 -0.0066568 2.40272522 -0.01008606 C4.08317483 -0.01515851 5.76363454 -0.01749429 7.4440918 -0.01733398 C10.02083884 -0.01951911 12.59715701 -0.03766734 15.17382812 -0.05664062 C16.80338395 -0.0595747 18.43294181 -0.0615594 20.0625 -0.0625 C20.83649643 -0.06968552 21.61049286 -0.07687103 22.40794373 -0.08427429 C27.86883372 -0.06085378 27.86883372 -0.06085378 30.09765625 2.16796875 C29.84765625 4.73046875 29.84765625 4.73046875 29.09765625 7.16796875 C26.27941433 8.57708971 23.92514343 8.27980428 20.77734375 8.265625 C19.52050781 8.26240234 18.26367188 8.25917969 16.96875 8.25585938 C15.65003906 8.24748047 14.33132813 8.23910156 12.97265625 8.23046875 C11.63281414 8.22545364 10.29297025 8.22089076 8.953125 8.21679688 C5.66794968 8.2049797 2.38279744 8.18704376 -0.90234375 8.16796875 C-0.90234375 15.42796875 -0.90234375 22.68796875 -0.90234375 30.16796875 C1.89556641 30.15056641 1.89556641 30.15056641 4.75 30.1328125 C7.17838442 30.1234365 9.60676992 30.1143361 12.03515625 30.10546875 C13.88270508 30.09290039 13.88270508 30.09290039 15.76757812 30.08007812 C16.93740234 30.07685547 18.10722656 30.07363281 19.3125 30.0703125 C20.93853149 30.06245728 20.93853149 30.06245728 22.59741211 30.05444336 C25.09765625 30.16796875 25.09765625 30.16796875 26.09765625 31.16796875 C26.28515625 33.60546875 26.28515625 33.60546875 26.09765625 36.16796875 C24.09765625 38.16796875 24.09765625 38.16796875 21.57568359 38.39501953 C20.53879395 38.3845459 19.5019043 38.37407227 18.43359375 38.36328125 C17.31210937 38.35683594 16.190625 38.35039063 15.03515625 38.34375 C13.85953125 38.32699219 12.68390625 38.31023438 11.47265625 38.29296875 C10.28929687 38.28394531 9.1059375 38.27492188 7.88671875 38.265625 C4.95694568 38.2419978 2.02727611 38.20612588 -0.90234375 38.16796875 C-0.90234375 45.42796875 -0.90234375 52.68796875 -0.90234375 60.16796875 C1.16789062 60.14476562 3.238125 60.1215625 5.37109375 60.09765625 C7.37336752 60.08375157 9.37564248 60.06991698 11.37792969 60.05810547 C12.77086406 60.04803998 14.16377727 60.03438641 15.55664062 60.01708984 C17.55719985 59.99286655 19.5579124 59.98256061 21.55859375 59.97265625 C23.36529541 59.9569458 23.36529541 59.9569458 25.20849609 59.94091797 C28.09765625 60.16796875 28.09765625 60.16796875 30.09765625 62.16796875 C29.84765625 64.73046875 29.84765625 64.73046875 29.09765625 67.16796875 C26.05237406 68.69060984 22.87620379 68.33082412 19.53515625 68.3359375 C18.78806396 68.3392659 18.04097168 68.3425943 17.27124023 68.34602356 C15.69092424 68.35108841 14.11059754 68.35343202 12.53027344 68.35327148 C10.10724382 68.35546009 7.68466789 68.37362576 5.26171875 68.39257812 C3.72786615 68.39551167 2.19401137 68.39749673 0.66015625 68.3984375 C-0.06695557 68.40562302 -0.79406738 68.41280853 -1.54321289 68.42021179 C-6.67351572 68.39679678 -6.67351572 68.39679678 -8.90234375 66.16796875 C-9.14958191 63.46653748 -9.14958191 63.46653748 -9.14526367 59.98999023 C-9.1483403 58.69202011 -9.15141693 57.39404999 -9.15458679 56.05674744 C-9.14768956 54.634184 -9.14042263 53.21162231 -9.1328125 51.7890625 C-9.13162082 50.33700094 -9.13116751 48.88493861 -9.13142395 47.43287659 C-9.12985879 44.38887715 -9.12156597 41.34499526 -9.1081543 38.30102539 C-9.09114927 34.39109099 -9.08734036 30.48128568 -9.08809948 26.57131863 C-9.08782813 23.57313292 -9.08235279 20.57497566 -9.07509804 17.57679939 C-9.07190693 16.13463621 -9.06994294 14.69246979 -9.06920433 13.25030327 C-9.06704631 11.23904136 -9.05751724 9.22779138 -9.04760742 7.21655273 C-9.04379562 6.07008774 -9.03998383 4.92362274 -9.03605652 3.74241638 C-8.7585447 -1.60067586 -4.27765043 0.00613421 0 0 Z " fill="#1D1D1B" transform="translate(465.90234375,679.83203125)"/>
<path d="M0 0 C0.77915771 0.00202423 1.55831543 0.00404846 2.36108398 0.00613403 C3.15635498 0.00517731 3.95162598 0.00422058 4.77099609 0.00323486 C6.45564859 0.0025531 8.1403037 0.00440711 9.82495117 0.00857544 C12.41257595 0.01392378 15.00002714 0.00863034 17.58764648 0.00222778 C19.22045937 0.00288857 20.85327215 0.00416973 22.48608398 0.00613403 C23.2652417 0.0041098 24.04439941 0.00208557 24.84716797 0 C30.30863294 0.02399549 30.30863294 0.02399549 31.42358398 1.13894653 C31.61108398 3.57644653 31.61108398 3.57644653 31.42358398 6.13894653 C29.42358398 8.13894653 29.42358398 8.13894653 26.6262207 8.36599731 C25.46364746 8.35552368 24.30107422 8.34505005 23.10327148 8.33425903 C21.21801758 8.32459106 21.21801758 8.32459106 19.29467773 8.31472778 C17.9759668 8.29796997 16.65725586 8.28121216 15.29858398 8.26394653 C13.95874678 8.25391636 12.61890247 8.24479057 11.27905273 8.23660278 C7.99382023 8.21296802 4.70868 8.17709604 1.42358398 8.13894653 C1.42358398 15.39894653 1.42358398 22.65894653 1.42358398 30.13894653 C4.09581055 30.10414185 4.09581055 30.10414185 6.82202148 30.06863403 C9.14753814 30.04987987 11.47305931 30.03167929 13.79858398 30.01394653 C14.97420898 29.99718872 16.14983398 29.98043091 17.36108398 29.96316528 C19.04331055 29.95349731 19.04331055 29.95349731 20.75952148 29.94363403 C21.79641113 29.9331604 22.83330078 29.92268677 23.90161133 29.91189575 C26.42358398 30.13894653 26.42358398 30.13894653 28.42358398 32.13894653 C28.17358398 34.70144653 28.17358398 34.70144653 27.42358398 37.13894653 C24.81407163 38.44370271 22.89657114 38.25196226 19.97827148 38.23660278 C18.3637207 38.2317688 18.3637207 38.2317688 16.71655273 38.22683716 C15.58862305 38.21845825 14.46069336 38.21007935 13.29858398 38.20144653 C12.16291992 38.19693481 11.02725586 38.1924231 9.85717773 38.18777466 C7.04595752 38.17596281 4.23476427 38.15802694 1.42358398 38.13894653 C1.42358398 45.39894653 1.42358398 52.65894653 1.42358398 60.13894653 C3.50541992 60.12734497 5.58725586 60.11574341 7.73217773 60.10379028 C9.74104697 60.09683918 11.74991649 60.08992265 13.75878906 60.08401489 C15.15853627 60.07897574 16.55827819 60.07214437 17.95800781 60.06350708 C19.96604175 60.05142334 21.97411356 60.04624847 23.98217773 60.04129028 C25.79673462 60.03343506 25.79673462 60.03343506 27.64794922 60.02542114 C30.42358398 60.13894653 30.42358398 60.13894653 31.42358398 61.13894653 C31.61108398 63.57644653 31.61108398 63.57644653 31.42358398 66.13894653 C28.93507725 68.62745327 27.46148338 68.38506984 24.06445312 68.4168396 C22.9737854 68.41076691 22.9737854 68.41076691 21.86108398 68.40457153 C21.1139917 68.40648499 20.36689941 68.40839844 19.59716797 68.41036987 C18.01684228 68.41173151 16.4365054 68.40803653 14.85620117 68.39968872 C12.43309476 68.38898853 10.01072975 68.39958432 7.58764648 68.41238403 C6.05379068 68.41106243 4.51993533 68.40850003 2.98608398 68.40457153 C2.25897217 68.40862 1.53186035 68.41266846 0.78271484 68.4168396 C-4.34649241 68.36887014 -4.34649241 68.36887014 -6.57641602 66.13894653 C-6.82365417 63.43751526 -6.82365417 63.43751526 -6.81933594 59.96096802 C-6.82241257 58.66299789 -6.8254892 57.36502777 -6.82865906 56.02772522 C-6.82176183 54.60516178 -6.8144949 53.18260009 -6.80688477 51.76004028 C-6.80569309 50.30797873 -6.80523978 48.85591639 -6.80549622 47.40385437 C-6.80393106 44.35985493 -6.79563824 41.31597305 -6.78222656 38.27200317 C-6.76522154 34.36206877 -6.76141262 30.45226346 -6.76217175 26.54229641 C-6.76190039 23.5441107 -6.75642506 20.54595345 -6.7491703 17.54777718 C-6.7459792 16.10561399 -6.7440152 14.66344758 -6.7432766 13.22128105 C-6.74111858 11.21001915 -6.7315895 9.19876917 -6.72167969 7.18753052 C-6.71786789 6.04106552 -6.71405609 4.89460052 -6.71012878 3.71339417 C-6.46527765 -1.00086335 -4.1623369 0.01828764 0 0 Z " fill="#1E1E1C" transform="translate(174.576416015625,679.8610534667969)"/>
<path d="M0 0 C4.21414192 1.7570829 7.16347932 3.98603554 10.0625 7.5 C11.17006838 10.45351567 10.93473579 12.02584068 10 15 C8.35 15.33 6.7 15.66 5 16 C4.38125 15.01 3.7625 14.02 3.125 13 C1.30817718 10.7968413 0.36904189 10.08109519 -2.453125 9.4609375 C-5.15894796 9.37390811 -7.37488098 9.31479944 -10 10 C-12.15999078 12.09827676 -12.90598323 13.47147329 -13.43359375 16.4375 C-13.43488281 17.283125 -13.43617188 18.12875 -13.4375 19 C-13.45683594 19.845625 -13.47617188 20.69125 -13.49609375 21.5625 C-12.82143248 24.87737112 -11.67375772 25.95613907 -9 28 C-5.95571174 29.19051396 -5.95571174 29.19051396 -2.625 30 C4.32588164 32.02928424 8.89937973 33.8760278 12.875 40.125 C15.40352443 45.14100139 16.05442954 49.47478919 15 55 C12.57111079 61.8901143 9.51637373 66.26614185 3.23828125 70.06640625 C-2.10334717 72.29441531 -9.1491674 72.06795896 -14.5234375 70.0546875 C-18.40052475 67.76302627 -21.3800467 65.31987547 -23 61 C-22.6875 58.1875 -22.6875 58.1875 -22 56 C-19.525 55.505 -19.525 55.505 -17 55 C-15.76302083 56.52994792 -14.52604167 58.05989583 -13.2890625 59.58984375 C-10.98150018 62.11417707 -9.71746195 62.01852709 -6.1875 62.25 C-2.35125857 62.19430139 -0.02863204 61.49416756 3 59 C4.87142984 55.96881083 5.32100192 53.54227419 5.375 50 C5.41753906 48.7315625 5.41753906 48.7315625 5.4609375 47.4375 C4.82157393 44.05645875 3.74026363 43.07359602 1 41 C-2.26100089 39.52161887 -5.66399684 38.4722155 -9.06835938 37.37695312 C-14.92559683 35.36232693 -18.30328929 32.51581243 -21.8125 27.3125 C-23.92131663 21.43001152 -23.99210569 15.56767969 -21.5625 9.75 C-16.96801845 1.81847396 -8.93924708 -1.9258185 0 0 Z " fill="#232321" transform="translate(269,678)"/>
<path d="M0 0 C2.38623047 0.13378906 2.38623047 0.13378906 5 1 C6.52392578 3.04589844 6.52392578 3.04589844 7.8203125 5.859375 C8.32336914 6.94669922 8.82642578 8.03402344 9.34472656 9.15429688 C12.66903173 16.7925897 15.78401985 24.51510506 18.875 32.25 C19.56985299 33.97804943 20.26516234 35.70591542 20.9609375 37.43359375 C22.64588525 41.62030312 24.32466727 45.8094344 26 50 C28.14452628 47.85547372 28.81011052 46.36762246 29.93945312 43.58203125 C30.31324097 42.66768311 30.68702881 41.75333496 31.07214355 40.8112793 C31.47114868 39.82168213 31.87015381 38.83208496 32.28125 37.8125 C32.69540161 36.79905518 33.10955322 35.78561035 33.53625488 34.74145508 C34.86230055 31.49623469 36.18190391 28.2484567 37.5 25 C39.23388948 20.7268177 40.97424941 16.45635964 42.71875 12.1875 C43.11775513 11.19790283 43.51676025 10.20830566 43.92785645 9.1887207 C44.30164429 8.27437256 44.67543213 7.36002441 45.06054688 6.41796875 C45.3876062 5.61125732 45.71466553 4.8045459 46.05163574 3.97338867 C47 2 47 2 49 0 C52.125 0.375 52.125 0.375 55 1 C55.44520194 6.50559198 53.94939763 10.27387399 51.78125 15.1953125 C51.28047188 16.36810509 51.28047188 16.36810509 50.76957703 17.56459045 C49.68948785 20.08905166 48.59494313 22.60695073 47.5 25.125 C46.38929437 27.70853758 45.28216684 30.29358571 44.17558289 32.87889099 C43.44913881 34.57597472 42.72153654 36.27256318 41.99275208 37.96864319 C38.9342946 45.10154031 36.03144295 52.28952654 33.296875 59.55322266 C30.66591956 66.36821548 30.66591956 66.36821548 28 68 C26.04370117 67.80004883 26.04370117 67.80004883 24 67 C17.91325852 58.88516812 14.80292851 47.00112549 11 37.625 C9.94722757 35.04004174 8.89335908 32.45553413 7.83886719 29.87127686 C7.16022578 28.2052235 6.48375549 26.53828395 5.80957031 24.87042236 C4.37055264 21.31644924 2.91841156 17.77612689 1.3515625 14.27636719 C0.88492188 13.22352539 0.41828125 12.17068359 -0.0625 11.0859375 C-0.66771484 9.76795166 -0.66771484 9.76795166 -1.28515625 8.42333984 C-2.13272937 5.55004383 -1.86537898 3.84153369 -1 1 C-0.67 0.67 -0.34 0.34 0 0 Z " fill="#20201E" transform="translate(714,680)"/>
<path d="M0 0 C2.5625 0.1875 2.5625 0.1875 4.5625 2.1875 C4.81646729 4.79954529 4.81646729 4.79954529 4.82128906 8.15014648 C4.82759338 9.40161972 4.83389771 10.65309296 4.84039307 11.94248962 C4.836813 13.31452576 4.83271096 14.68656061 4.828125 16.05859375 C4.82947187 17.46102465 4.83141258 18.8634551 4.83392334 20.2658844 C4.83687458 23.20733071 4.83257771 26.14865567 4.82324219 29.09008789 C4.81185803 32.86088717 4.81840036 36.63140143 4.83038712 40.40219021 C4.83761474 43.2992416 4.83531347 46.19622546 4.83013153 49.09327888 C4.82879698 50.483552 4.83043595 51.87383125 4.83509064 53.26409721 C4.84016921 55.20788328 4.83105623 57.15169082 4.82128906 59.09545898 C4.81890228 60.75519997 4.81890228 60.75519997 4.81646729 62.44847107 C4.5625 65.1875 4.5625 65.1875 2.5625 68.1875 C-2.3125 67.3125 -2.3125 67.3125 -3.4375 66.1875 C-3.53685148 64.16799791 -3.56549508 62.14499085 -3.56689453 60.12304688 C-3.57004669 58.82500122 -3.57319885 57.52695557 -3.57644653 56.1895752 C-3.57465675 54.76179979 -3.5726058 53.33402469 -3.5703125 51.90625 C-3.57098558 50.45275862 -3.57195564 48.99926736 -3.57321167 47.54577637 C-3.57468846 44.49583873 -3.5725347 41.44593034 -3.56787109 38.39599609 C-3.5621738 34.47819441 -3.56545291 30.56046122 -3.57144356 26.64266205 C-3.57504969 23.64019246 -3.57391035 20.63773923 -3.57131577 17.63526917 C-3.57064664 16.19031262 -3.57147442 14.74535461 -3.57379532 13.30039978 C-3.57632265 11.28425117 -3.57179052 9.26809738 -3.56689453 7.25195312 C-3.56609894 6.10247192 -3.56530334 4.95299072 -3.56448364 3.76867676 C-3.39786474 0.38184016 -3.36400494 0.25876961 0 0 Z " fill="#1D1D1B" transform="translate(326.4375,679.8125)"/>
<path d="M0 0 C9.184549 -0.29003839 16.66444027 -0.38352568 24.5625 4.625 C26.79131416 8.30738861 26.89269667 11.82125609 26 16 C21.42196677 21.10123703 15.60922733 22.33907727 9 23 C6.03 23 3.06 23 0 23 C0 15.41 0 7.82 0 0 Z " fill="#FBFBFB" transform="translate(379,688)"/>
<path d="M0 0 C0.66 0 1.32 0 2 0 C3.67239921 3.95593578 5.33694382 7.9151284 7 11.875 C7.47695313 13.00292969 7.95390625 14.13085938 8.4453125 15.29296875 C9.12207031 16.90751953 9.12207031 16.90751953 9.8125 18.5546875 C10.23144531 19.54968262 10.65039062 20.54467773 11.08203125 21.56982422 C12 24 12 24 12 26 C4.74 26 -2.52 26 -10 26 C-6.625 15.875 -6.625 15.875 -5.17578125 12.40234375 C-4.86962891 11.66435547 -4.56347656 10.92636719 -4.24804688 10.16601562 C-3.93931641 9.43060547 -3.63058594 8.69519531 -3.3125 7.9375 C-2.83200195 6.78217773 -2.83200195 6.78217773 -2.34179688 5.60351562 C-1.56400964 3.73450451 -0.7824152 1.86707847 0 0 Z " fill="#F7F7F7" transform="translate(662,696)"/>
</svg>
